<svg width="56" height="57" viewBox="0 0 56 57" fill="none" xmlns="http://www.w3.org/2000/svg" aria-hidden="true">
<path d="M40.5813 10.016L45.9683 15.3898C43.7148 13.1363 39.9945 12.3629 35.3142 13.5896C25.9134 16.0565 16.1793 25.7506 13.6325 35.1913L8.24543 29.8176C10.7923 20.3768 20.5131 10.6961 29.9271 8.21589C34.5941 6.98913 38.3278 7.76251 40.5813 10.016Z" fill="#0F1114"/>
<path d="M15.42 46.0054L10.0329 40.6317C7.75275 38.3515 6.96599 34.5512 8.24609 29.8042L13.6331 35.178C12.353 39.925 13.1265 43.7119 15.42 46.0054Z" fill="#FFEAC9"/>
<path d="M47.1691 3.42883L52.5562 8.80258C55.8231 12.0695 56.9432 17.4966 55.1031 24.2838L49.716 18.9101C51.5561 12.1095 50.436 6.68242 47.1691 3.42883Z" fill="#0F1114"/>
<path d="M49.716 18.9101C46.0757 32.4178 32.1413 46.2855 18.6869 49.8191C5.21919 53.3527 -2.76815 45.2454 0.885468 31.7377C4.52575 18.23 18.4469 4.37558 31.9146 0.828642C45.3689 -2.70497 53.3563 5.389 49.716 18.8967V18.9101ZM8.24606 29.8176C5.6992 39.245 11.2863 44.9121 20.687 42.4452C30.0878 39.9783 39.8085 30.2843 42.3554 20.8569C44.9023 11.4161 39.3285 5.74903 29.9278 8.22922C20.527 10.6961 10.7929 20.3902 8.24606 29.8309" fill="#E5C158"/>
<path d="M8.81945 52.6193L3.4324 47.2456C6.65931 50.4725 12.0064 51.5926 18.6869 49.8324C32.1413 46.2988 46.0624 32.4311 49.716 18.9234L55.1031 24.2971C51.4628 37.8048 37.5283 51.6726 24.074 55.2062C17.3801 56.9663 12.0464 55.8462 8.81945 52.6193Z" fill="#3587FC"/>
<path d="M24.3401 33.1111C29.7014 33.1111 34.0476 28.765 34.0476 23.4037C34.0476 18.0424 29.7014 13.6963 24.3401 13.6963C18.9788 13.6963 14.6326 18.0424 14.6326 23.4037C14.6326 28.765 18.9788 33.1111 24.3401 33.1111Z" fill="#3587FC"/>
<mask id="mask0_140_230" style="mask-type:luminance" maskUnits="userSpaceOnUse" x="14" y="13" width="21" height="21">
<path d="M24.3401 33.1111C29.7014 33.1111 34.0476 28.765 34.0476 23.4037C34.0476 18.0424 29.7014 13.6963 24.3401 13.6963C18.9788 13.6963 14.6326 18.0424 14.6326 23.4037C14.6326 28.765 18.9788 33.1111 24.3401 33.1111Z" fill="white"/>
</mask>
<g mask="url(#mask0_140_230)">
<path d="M19.1664 27.5374C23.2389 27.5374 26.5403 24.236 26.5403 20.1635C26.5403 16.091 23.2389 12.7896 19.1664 12.7896C15.0939 12.7896 11.7925 16.091 11.7925 20.1635C11.7925 24.236 15.0939 27.5374 19.1664 27.5374Z" fill="#F0DD7A"/>
</g>
</svg>
