<svg width="68" height="54" viewBox="0 0 68 54" fill="none" xmlns="http://www.w3.org/2000/svg" aria-hidden="true">
<path d="M51.3794 39.3434L46.4494 36.4834L46.4694 42.1834L51.3994 45.0534L51.3794 39.3434Z" fill="#0F1114"/>
<path d="M59.499 12.1034L54.569 9.2334C56.639 10.4334 57.919 12.9834 57.929 16.6134C57.949 23.9034 52.799 32.8134 46.459 36.4834L51.389 39.3534C57.739 35.6934 62.879 26.7834 62.859 19.4834C62.849 15.8634 61.569 13.3134 59.499 12.1034Z" fill="#E0FBFF"/>
<path d="M51.2891 7.19338L51.3091 12.9034C57.6591 9.2434 62.8391 12.1934 62.8591 19.4834C62.8791 26.7734 57.7291 35.6834 51.3891 39.3534L51.4091 45.0634C60.4991 39.8134 67.8591 27.0634 67.8391 16.6234C67.8091 6.18337 60.3891 1.95339 51.3091 7.20339L51.2891 7.19338Z" fill="#7DD3FC"/>
<path d="M51.2894 7.19339L46.3594 4.32339L46.3794 10.0334L51.3094 12.8934L51.2894 7.19339Z" fill="#E0FBFF"/>
<path d="M63.0094 6.05342L58.0794 3.18342C55.0794 1.44342 50.9294 1.68341 46.3594 4.32341L51.2894 7.1934C55.8594 4.5534 60.0094 4.31342 63.0094 6.05342Z" fill="#0F1114"/>
<path d="M29.5601 10.0334L24.6301 7.16345C26.7001 8.36345 27.9801 10.9135 27.9901 14.5435L32.92 17.4135C32.91 13.7835 31.6301 11.2334 29.5601 10.0334Z" fill="#8ECFE8"/>
<path d="M33.0697 3.98347L28.1397 1.11348C25.1397 -0.626524 20.9997 -0.38654 16.4297 2.25346L21.3597 5.12346C25.9297 2.48345 30.0797 2.24347 33.0697 3.98347Z" fill="#0F1114"/>
<path d="M21.3597 5.12345C12.2697 10.3735 4.90973 23.1335 4.92973 33.5735L9.8997 30.7035C9.8797 23.4035 15.0297 14.4935 21.3697 10.8335C27.7197 7.17347 32.8897 10.1235 32.9097 17.4235L37.8797 14.5535C37.8497 4.11348 30.4397 -0.116547 21.3497 5.12345H21.3597Z" fill="#7DD3FC"/>
<path d="M21.36 5.12344L16.43 2.25345C7.34003 7.50345 -0.0199593 20.2635 4.06645e-05 30.7035L4.93003 33.5735C4.90003 23.1335 12.27 10.3734 21.36 5.12344Z" fill="#E0FBFF"/>
<path d="M35.3594 26.4834C32.2494 31.8634 30.5594 37.6034 30.5694 42.6634C30.5794 47.7134 32.3094 51.4834 35.4294 53.2634L38.9294 47.2034C36.7494 45.9634 35.5393 43.3334 35.5293 39.8034C35.5193 36.2634 36.6994 32.2534 38.8694 28.5034L35.3493 26.4934L35.3594 26.4834Z" fill="#E0FBFF"/>
<path d="M35.3597 26.4834L30.4297 23.6134C27.3197 28.9934 25.6297 34.7334 25.6397 39.7934C25.6497 44.8434 27.3797 48.6134 30.4997 50.3934L35.4297 53.2634C32.2997 51.4934 30.5797 47.7234 30.5697 42.6634C30.5597 37.6134 32.2497 31.8634 35.3597 26.4834Z" fill="#7DD3FC"/>
<path d="M38.8797 28.4934L33.9497 25.6234L30.4297 23.6134L35.3597 26.4834L38.8797 28.4934Z" fill="#B9F2FF"/>
</svg>
