<svg width="30" height="41" viewBox="0 0 30 41" fill="none" xmlns="http://www.w3.org/2000/svg" aria-hidden="true">
<path d="M4.54492 0.0100098L10.2449 0.190002L12.9349 5.26001L7.23486 5.07001L4.54492 0.0100098Z" fill="#0F1114"/>
<path d="M18.6353 33.2L12.9354 33.01C10.5154 32.93 8.14534 31.25 6.41534 27.99C2.97534 21.52 3.34528 11.23 7.23528 5.06L12.9354 5.25C9.05536 11.42 8.68529 21.7 12.1153 28.18C13.8453 31.44 16.2153 33.12 18.6353 33.2Z" fill="#3587FC"/>
<path d="M22.3852 33.61C16.8252 42.44 8.29521 42.09 3.37521 32.82C-1.54479 23.55 -1.02476 8.84 4.53524 0L7.22531 5.06998C3.3453 11.24 2.97524 21.52 6.40524 28C9.84524 34.47 15.8053 34.72 19.6853 28.55L22.3752 33.62L22.3852 33.61Z" fill="#C1CAD9"/>
<path d="M18.4158 40.19L12.7158 40C16.1358 40.11 19.6257 37.99 22.3857 33.6L28.0858 33.79C25.3258 38.18 21.8358 40.3 18.4158 40.19Z" fill="#0F1114"/>
<path d="M19.6953 28.55L25.4053 28.73L28.0953 33.8L22.3853 33.61L19.6953 28.55Z" fill="#0F1114"/>
<path d="M20.7853 24.31C25.5073 24.31 29.3353 20.482 29.3353 15.76C29.3353 11.0379 25.5073 7.20999 20.7853 7.20999C16.0632 7.20999 12.2352 11.0379 12.2352 15.76C12.2352 20.482 16.0632 24.31 20.7853 24.31Z" fill="#3587FC"/>
<mask id="mask0_140_227" style="mask-type:luminance" maskUnits="userSpaceOnUse" x="12" y="7" width="18" height="18">
<path d="M20.7853 24.31C25.5073 24.31 29.3353 20.482 29.3353 15.76C29.3353 11.0379 25.5073 7.20999 20.7853 7.20999C16.0632 7.20999 12.2352 11.0379 12.2352 15.76C12.2352 20.482 16.0632 24.31 20.7853 24.31Z" fill="white"/>
</mask>
<g mask="url(#mask0_140_227)">
<path d="M16.2253 19.4C19.8097 19.4 22.7153 16.4943 22.7153 12.91C22.7153 9.32565 19.8097 6.41998 16.2253 6.41998C12.641 6.41998 9.73523 9.32565 9.73523 12.91C9.73523 16.4943 12.641 19.4 16.2253 19.4Z" fill="#C1CAD9"/>
</g>
</svg>
