<svg width="39" height="63" viewBox="0 0 39 63" fill="none" xmlns="http://www.w3.org/2000/svg" aria-hidden="true">
<path d="M9.31995 10.0335L14.25 7.16348C12.18 8.36348 10.9 10.9135 10.89 14.5435L5.95996 17.4135C5.96996 13.7835 7.24995 11.2335 9.31995 10.0335Z" fill="#0F1114"/>
<path d="M5.80957 3.98346L10.7396 1.11346C13.7396 -0.626536 17.8796 -0.386521 22.4496 2.25348L17.5197 5.12347C12.9497 2.48347 8.79957 2.24346 5.80957 3.98346Z" fill="#3587FC"/>
<path d="M17.52 5.11347C26.61 10.3635 33.97 23.1235 33.95 33.5635L28.98 30.6935C29 23.3935 23.85 14.4835 17.51 10.8235C11.17 7.1635 5.98997 10.1135 5.96997 17.4135L1 14.5435C1.03 4.1035 8.44003 -0.126526 17.53 5.11347H17.52Z" fill="#C1CAD9"/>
<path d="M17.5205 5.11346L22.4504 2.24347C31.5404 7.49347 38.9005 20.2535 38.8805 30.6935L33.9504 33.5635C33.9804 23.1235 26.6105 10.3635 17.5205 5.11346Z" fill="#0F1114"/>
<path d="M0 51.9934L14.63 18.6934C15.28 15.9334 19.19 15.8934 19.91 18.6334L36 51.9934L18 62.3834L0 51.9934Z" fill="#C1CAD9"/>
<mask id="mask0_140_226" style="mask-type:luminance" maskUnits="userSpaceOnUse" x="0" y="16" width="36" height="47">
<path d="M0 51.9934L14.63 18.6934C15.28 15.9334 19.19 15.8934 19.91 18.6334L36 51.9934L18 62.3834L0 51.9934Z" fill="white"/>
</mask>
<g mask="url(#mask0_140_226)">
<path d="M50.3505 0.513489H17.6904V72.8335H50.3505V0.513489Z" fill="#3587FC"/>
</g>
</svg>
