<svg width="68" height="54" viewBox="0 0 68 54" fill="none" xmlns="http://www.w3.org/2000/svg">
<path d="M16.4604 39.3435L21.3904 36.4835L21.3804 42.1835L16.4404 45.0535L16.4604 39.3435Z" fill="#C1CAD9"/>
<path d="M8.35028 12.1035L13.2803 9.23346C11.2103 10.4335 9.93029 12.9835 9.92029 16.6135C9.90029 23.9035 15.0503 32.8135 21.3903 36.4835L16.4603 39.3535C10.1103 35.6935 4.97029 26.7835 4.99029 19.4835C5.00029 15.8635 6.28028 13.3135 8.35028 12.1035Z" fill="#C1CAD9"/>
<path d="M16.55 7.1935L16.53 12.9035C10.18 9.24349 5.00002 12.1935 4.98002 19.4835C4.96002 26.7735 10.1101 35.6835 16.4501 39.3535L16.43 45.0635C7.34003 39.8135 -0.0199593 27.0635 4.06645e-05 16.6235C0.0200407 6.18349 7.45001 1.95347 16.53 7.20347L16.55 7.1935Z" fill="#3587FC"/>
<path d="M16.5503 7.19351L21.4803 4.32349L21.4703 10.0335L16.5303 12.9035L16.5503 7.19351Z" fill="#C1CAD9"/>
<path d="M4.83008 6.05348L9.76007 3.18348C12.7601 1.44348 16.91 1.68347 21.48 4.32347L16.55 7.19349C11.98 4.55349 7.83008 4.31348 4.83008 6.05348Z" fill="#0F1114"/>
<path d="M38.28 10.0335L43.21 7.16345C41.14 8.36345 39.86 10.9135 39.85 14.5435L34.92 17.4135C34.93 13.7835 36.21 11.2335 38.28 10.0335Z" fill="#C1CAD9"/>
<path d="M34.7695 3.98346L39.6996 1.11346C42.6996 -0.626536 46.8395 -0.386521 51.4095 2.25348L46.4796 5.12347C41.9096 2.48347 37.7595 2.24346 34.7695 3.98346Z" fill="#0F1114"/>
<path d="M46.48 5.12346C55.57 10.3735 62.93 23.1334 62.91 33.5734L57.94 30.7034C57.96 23.4034 52.81 14.4935 46.47 10.8335C40.12 7.17345 34.95 10.1234 34.93 17.4234L29.96 14.5535C29.99 4.11345 37.4 -0.116541 46.49 5.12346H46.48Z" fill="#3587FC"/>
<path d="M46.4795 5.12347L51.4095 2.25348C60.4995 7.50348 67.8595 20.2635 67.8395 30.7035L62.9095 33.5735C62.9395 23.1335 55.5695 10.3735 46.4795 5.12347Z" fill="#C1CAD9"/>
<path d="M32.4802 26.4835C35.5902 31.8635 37.2801 37.6035 37.2701 42.6635C37.2601 47.7135 35.5302 51.4835 32.4102 53.2635L28.9102 47.2035C31.0902 45.9635 32.3002 43.3335 32.3102 39.8035C32.3202 36.2635 31.1402 32.2535 28.9702 28.5035L32.4902 26.4935L32.4802 26.4835Z" fill="#3587FC"/>
<path d="M32.4802 26.4835L37.4102 23.6135C40.5202 28.9935 42.2102 34.7335 42.2002 39.7935C42.1902 44.8435 40.4601 48.6135 37.3401 50.3935L32.4102 53.2635C35.5402 51.4935 37.2601 47.7235 37.2701 42.6635C37.2801 37.6135 35.5902 31.8635 32.4802 26.4835Z" fill="#C1CAD9"/>
<path d="M28.9601 28.4935L33.8902 25.6235L37.4102 23.6135L32.4802 26.4835L28.9601 28.4935Z" fill="#F0465F"/>
</svg>
