<svg width="187" height="187" viewBox="0 0 187 187" fill="none" xmlns="http://www.w3.org/2000/svg">
<path d="M93.5001 168.3L59.8011 175.702C57.5935 176.222 55.6131 175.767 53.86 174.339C52.1069 172.91 51.2303 171.092 51.2303 168.884V123.108C45.6463 118.303 41.1661 111.875 37.7897 103.824C34.4133 95.7726 32.7251 87.6562 32.7251 79.475C32.7251 62.593 38.6338 48.2434 50.4511 36.426C62.2685 24.6087 76.6182 18.7 93.5001 18.7C110.382 18.7 124.732 24.6087 136.549 36.426C148.366 48.2434 154.275 62.593 154.275 79.475C154.275 87.7861 152.717 95.9349 149.6 103.921C146.483 111.908 141.808 118.368 135.575 123.303V168.884C135.575 171.092 134.699 172.91 132.945 174.339C131.192 175.767 129.212 176.222 127.004 175.702L93.5001 168.3ZM93.5001 126.225C106.486 126.225 117.524 121.68 126.615 112.59C135.705 103.499 140.25 92.4611 140.25 79.475C140.25 66.4889 135.705 55.4507 126.615 46.3604C117.524 37.2701 106.486 32.725 93.5001 32.725C80.514 32.725 69.4758 37.2701 60.3855 46.3604C51.2952 55.4507 46.7501 66.4889 46.7501 79.475C46.7501 92.4611 51.2952 103.499 60.3855 112.59C69.4758 121.68 80.514 126.225 93.5001 126.225ZM65.2553 160.119L93.5001 153.885L121.55 160.119V133.237C117.265 135.575 112.752 137.328 108.012 138.497C103.272 139.666 98.4348 140.25 93.5001 140.25C88.5654 140.25 83.6956 139.698 78.8907 138.594C74.0859 137.49 69.5407 135.705 65.2553 133.237V160.119Z" fill="#C9A227"/>
<path d="M81.7361 99V92.984H90.8241V66.232H83.3361V61.624C85.3414 61.24 87.0908 60.792 88.5841 60.28C90.0774 59.7253 91.4641 59.064 92.7441 58.296H98.2481V92.984H106.248V99H81.7361Z" fill="#C9A227"/>
</svg>
