<svg width="187" height="187" viewBox="0 0 187 187" fill="none" xmlns="http://www.w3.org/2000/svg">
<path d="M93.5001 168.3L59.8011 175.702C57.5935 176.222 55.6131 175.767 53.86 174.339C52.1069 172.91 51.2303 171.092 51.2303 168.884V123.108C45.6463 118.303 41.1661 111.875 37.7897 103.824C34.4133 95.7726 32.7251 87.6562 32.7251 79.475C32.7251 62.593 38.6338 48.2434 50.4511 36.426C62.2685 24.6087 76.6182 18.7 93.5001 18.7C110.382 18.7 124.732 24.6087 136.549 36.426C148.366 48.2434 154.275 62.593 154.275 79.475C154.275 87.7861 152.717 95.9349 149.6 103.921C146.483 111.908 141.808 118.368 135.575 123.303V168.884C135.575 171.092 134.699 172.91 132.945 174.339C131.192 175.767 129.212 176.222 127.004 175.702L93.5001 168.3ZM93.5001 126.225C106.486 126.225 117.524 121.68 126.615 112.59C135.705 103.499 140.25 92.4611 140.25 79.475C140.25 66.4889 135.705 55.4507 126.615 46.3604C117.524 37.2701 106.486 32.725 93.5001 32.725C80.514 32.725 69.4758 37.2701 60.3855 46.3604C51.2952 55.4507 46.7501 66.4889 46.7501 79.475C46.7501 92.4611 51.2952 103.499 60.3855 112.59C69.4758 121.68 80.514 126.225 93.5001 126.225ZM65.2553 160.119L93.5001 153.885L121.55 160.119V133.237C117.265 135.575 112.752 137.328 108.012 138.497C103.272 139.666 98.4348 140.25 93.5001 140.25C88.5654 140.25 83.6956 139.698 78.8907 138.594C74.0859 137.49 69.5407 135.705 65.2553 133.237V160.119Z" fill="#A87040"/>
<path d="M92.3599 97.768C90.1839 97.768 88.2212 97.512 86.4719 97C84.7652 96.488 83.2506 95.8053 81.9279 94.952C80.6052 94.056 79.4746 93.0747 78.5359 92.008L82.0559 87.272C83.2932 88.5093 84.7012 89.576 86.2799 90.472C87.8586 91.3253 89.6719 91.752 91.7199 91.752C93.9386 91.752 95.7306 91.2187 97.0959 90.152C98.5039 89.0427 99.2079 87.528 99.2079 85.608C99.2079 84.2 98.8452 82.984 98.1199 81.96C97.4372 80.936 96.2212 80.1467 94.4719 79.592C92.7652 78.9947 90.3546 78.696 87.2399 78.696V73.32C89.9279 73.32 92.0399 73.0427 93.5759 72.488C95.1119 71.8907 96.1999 71.1227 96.8399 70.184C97.5226 69.2027 97.8639 68.072 97.8639 66.792C97.8639 65.0853 97.3306 63.7627 96.2639 62.824C95.1972 61.8427 93.7252 61.352 91.8479 61.352C90.2692 61.352 88.8186 61.7147 87.4959 62.44C86.1732 63.1227 84.8932 64.04 83.6559 65.192L79.8799 60.648C81.6292 59.112 83.5066 57.8747 85.5119 56.936C87.5172 55.9973 89.7146 55.528 92.1039 55.528C94.7066 55.528 96.9892 55.9547 98.9519 56.808C100.915 57.6187 102.451 58.8347 103.56 60.456C104.712 62.0347 105.288 63.976 105.288 66.28C105.288 68.5413 104.648 70.44 103.368 71.976C102.131 73.512 100.403 74.728 98.1839 75.624V75.88C99.7626 76.3067 101.192 76.968 102.472 77.864C103.752 78.76 104.755 79.8907 105.48 81.256C106.248 82.6213 106.632 84.2 106.632 85.992C106.632 88.4667 105.971 90.6 104.648 92.392C103.368 94.1413 101.64 95.4853 99.4639 96.424C97.3306 97.32 94.9626 97.768 92.3599 97.768Z" fill="#A87040"/>
</svg>
