<svg width="1301" height="1007" viewBox="0 0 1301 1007" fill="none" xmlns="http://www.w3.org/2000/svg">
<style>
  @keyframes blob-bounce {
    0%, 100% { transform: translateY(0px); }
    50% { transform: translateY(-15px); }
  }
  .bouncing-blob {
    animation: blob-bounce 2s ease-in-out infinite;
    transform-origin: center center;
  }
</style>
<path d="M822.496 415.743L901.441 369.863L901.954 175.234L823.009 221.115L822.496 415.743Z" fill="#0F1114"/>
<path d="M822.496 415.743H952.277L944.502 159.257L850.52 256.999L822.496 415.743Z" fill="#0F1114"/>
<path d="M918.43 138.923L839.485 184.803C829.318 190.699 823.082 203.258 822.996 221.029L901.941 175.149C901.941 157.292 908.263 144.818 918.43 138.923Z" fill="#0F1114"/>
<path d="M772.94 45.8804L772 386.609L822.493 415.743L823.006 221.029C823.092 185.145 848.553 170.706 879.738 188.734C910.923 206.761 936.127 250.42 936.041 286.304L935.528 481.018L986.023 510.153L986.962 169.424L772.94 45.8804Z" fill="#FFC936"/>
<path d="M986.029 510.238L1064.97 464.358L1066 123.544L986.969 169.424L986.029 510.238Z" fill="#F28100"/>
<path d="M986.957 169.424L1065.99 123.544L851.88 0L772.935 45.8805L986.957 169.424Z" fill="#FFDC96"/>
<path d="M462.182 539.021L461.709 699.748C461.709 703.651 459.107 707.672 453.903 710.629C443.495 716.661 426.346 716.661 415.82 710.629C410.498 707.554 407.896 703.533 407.896 699.512L408.369 538.784C408.369 542.805 410.971 546.826 416.293 549.901C426.819 555.933 443.85 555.933 454.376 549.901C459.58 546.944 462.182 542.924 462.182 539.021Z" fill="#0F1114"/>
<path d="M360 105.209V538.783L434.865 582.069L509.847 538.783V105.209H360Z" fill="#93B73B"/>
<mask id="mask0_584_1169" style="mask-type:luminance" maskUnits="userSpaceOnUse" x="360" y="105" width="150" height="478">
<path d="M360.001 105.21V538.783L434.865 582.069L509.848 538.783V105.21H360.001Z" fill="white"/>
</mask>
<g mask="url(#mask0_584_1169)">
<path d="M435.102 676.212L638.879 633.635L561.886 65.7083L435.102 22.4219V676.212Z" fill="#852600"/>
</g>
<path d="M360 105.212L432.854 60.7426L509.847 105.212L434.864 148.498L360 105.212Z" fill="#93B73B"/>
<path d="M573.966 760.827L780.936 634.398L999.733 760.827L786.85 883.709L573.966 760.827Z" fill="#852600"/>
<path d="M568.594 513.275V637.348L783.542 761.421L998.491 637.348V513.275H568.594Z" fill="#FFCCF5"/>
<mask id="mask1_584_1169" style="mask-type:luminance" maskUnits="userSpaceOnUse" x="568" y="513" width="431" height="249">
<path d="M568.591 513.275V637.348L783.54 761.421L998.488 637.348V513.275H568.591Z" fill="white"/>
</mask>
<g mask="url(#mask1_584_1169)">
<path d="M783.897 1031.66L1368.68 1035.13L1147.76 399.834L783.897 275.761V1031.66Z" fill="#FAAF00"/>
</g>
<path d="M568.596 513.279L777.574 385.743L998.493 513.279L783.545 637.352L568.596 513.279Z" fill="#FFF4E8"/>
<path d="M360.02 760.822V883.703L572.903 1006.58L785.787 883.703V760.822H360.02Z" fill="#FFCCF5"/>
<mask id="mask2_584_1169" style="mask-type:luminance" maskUnits="userSpaceOnUse" x="360" y="760" width="426" height="247">
<path d="M360.02 760.822V883.703L572.903 1006.58L785.787 883.703V760.822H360.02Z" fill="white"/>
</mask>
<g mask="url(#mask2_584_1169)">
<path d="M573.254 1274.23L1152.42 1277.66L933.619 648.471L573.254 525.589V1274.23Z" fill="#FAAF00"/>
</g>
<path d="M360.02 760.825L566.99 634.514L785.787 760.825L572.903 883.706L360.02 760.825Z" fill="#FFF4E8"/>
<path d="M215.256 747.502L214.901 992.318C214.901 995.748 212.655 999.296 208.045 1001.9C198.825 1007.22 183.813 1007.22 174.593 1001.9C169.983 999.178 167.619 995.748 167.619 992.2L167.973 747.383C167.973 750.931 170.337 754.479 174.947 757.081C184.167 762.403 199.18 762.403 208.4 757.081C213.01 754.479 215.256 750.931 215.256 747.502Z" fill="#0F1114"/>
<path d="M347.409 504.817L348 723.141L43.8562 898.888L43.2651 680.564L347.409 504.817Z" fill="#5B9DFC"/>
<path d="M43.8544 898.883L0.591029 873.691L0 655.367L43.2634 680.558L43.8544 898.883Z" fill="#0F1114"/>
<path d="M43.2634 680.563L0 655.372L304.144 479.743L347.407 504.816L43.2634 680.563Z" fill="#E8D8FF"/>
<mask id="mask3_584_1169" style="mask-type:luminance" maskUnits="userSpaceOnUse" x="94" y="537" width="213" height="318">
<path d="M95.5085 854.656L94.9175 658.921L305.442 537.341L306.033 733.075L95.5085 854.656Z" fill="white"/>
</mask>
<g mask="url(#mask3_584_1169)">
<path d="M222.108 585.353L194.566 633.252L230.737 653.239L95.1548 731.651L95.273 776.712L231.801 697.826L193.738 766.068L221.517 781.797L278.256 680.086L278.374 680.204L305.68 632.424L222.108 585.353Z" fill="white"/>
</g>
<path d="M821.352 474.716C791.43 457.449 743.176 457.449 713.491 474.716C683.805 491.983 683.923 519.895 713.845 537.162C743.767 554.429 792.021 554.429 821.707 537.162C851.392 519.895 851.274 491.983 821.352 474.716Z" fill="#0F1114"/>
<g class="bouncing-blob">
<path d="M752.757 476.255C795.148 476.255 829.513 441.89 829.513 399.499C829.513 357.107 795.148 322.743 752.757 322.743C710.365 322.743 676 357.107 676 399.499C676 441.89 710.365 476.255 752.757 476.255Z" fill="#FFC936"/>
<path d="M752.758 421.617C764.972 421.617 774.874 411.715 774.874 399.5C774.874 387.286 764.972 377.384 752.758 377.384C740.544 377.384 730.642 387.286 730.642 399.5C730.642 411.715 740.544 421.617 752.758 421.617Z" fill="white"/>
</g>
<path d="M1100.84 664.645C1100.84 669.02 1103.68 673.278 1109.36 676.589C1120.71 683.094 1139.16 683.094 1150.4 676.589C1155.96 673.396 1158.79 669.138 1158.79 664.763L1158.32 838.145C1158.32 842.402 1155.48 846.66 1149.92 849.971C1138.69 856.476 1120.24 856.476 1108.89 849.971C1103.21 846.66 1100.37 842.402 1100.37 838.026" fill="#0F1114"/>
<path d="M1125.8 470.795L1248.57 541.756C1181.15 502.728 1072.11 502.136 1003.63 540.455C1025.98 527.682 1048.22 515.028 1070.57 502.255C1089.02 491.729 1107.35 481.203 1125.8 470.795Z" fill="#0F1114"/>
<path d="M1125.8 470.795L1247.15 686.044C1177.96 724.837 1067.38 723.772 1000.08 683.56C932.789 643.349 934.445 579.248 1003.63 540.455C1044.32 517.275 1085.12 493.976 1125.8 470.795Z" fill="#0F1114"/>
<path d="M1022.08 531.351C1022.67 531.115 1023.26 530.878 1023.97 530.523C1023.38 530.76 1022.67 530.996 1022.08 531.351ZM1040.3 524.61C1040.89 524.373 1041.6 524.137 1042.19 524.018C1041.6 524.255 1040.89 524.373 1040.3 524.61ZM1067.5 517.632C1068.21 517.514 1068.92 517.396 1069.63 517.159C1068.92 517.277 1068.21 517.395 1067.5 517.632ZM1075.42 516.094C1076.13 515.976 1076.84 515.858 1077.55 515.739C1076.84 515.739 1076.13 515.976 1075.42 516.094ZM1079.56 515.503C1080.27 515.503 1080.98 515.267 1081.69 515.148C1080.98 515.148 1080.27 515.385 1079.56 515.503ZM1087.6 514.32C1088.31 514.32 1089.02 514.084 1089.73 514.084C1089.02 514.084 1088.31 514.202 1087.6 514.32ZM1091.74 513.847C1092.45 513.847 1093.16 513.729 1093.87 513.611C1093.16 513.611 1092.45 513.729 1091.74 513.847ZM1096 513.374C1096.71 513.374 1097.3 513.256 1098.01 513.138C1097.3 513.138 1096.71 513.256 1096 513.374ZM1100.02 513.02C1100.73 513.02 1101.44 513.019 1102.15 512.901C1101.44 512.901 1100.73 512.901 1100.02 513.02ZM1104.28 512.783C1104.99 512.783 1105.7 512.783 1106.29 512.665C1105.58 512.665 1104.87 512.664 1104.28 512.783ZM1108.42 512.428C1109.13 512.428 1109.84 512.428 1110.43 512.428C1109.72 512.428 1109.01 512.428 1108.42 512.428ZM1141.65 512.546C1142.36 512.546 1143.07 512.546 1143.78 512.665C1143.07 512.665 1142.36 512.665 1141.65 512.546ZM1145.79 512.783C1146.5 512.783 1147.21 512.783 1147.92 512.901C1147.21 512.901 1146.5 512.901 1145.79 512.783ZM1149.93 513.138C1150.64 513.138 1151.35 513.256 1152.06 513.374C1151.35 513.374 1150.64 513.256 1149.93 513.138ZM1154.07 513.492C1154.78 513.492 1155.49 513.611 1156.08 513.729C1155.37 513.729 1154.66 513.611 1154.07 513.492ZM1158.21 513.847C1158.92 513.847 1159.51 513.966 1160.22 514.084C1159.51 514.084 1158.92 513.966 1158.21 513.847ZM1166.37 514.912C1167.08 514.912 1167.79 515.148 1168.38 515.148C1167.67 515.148 1167.08 514.912 1166.37 514.912ZM1170.51 515.503C1171.22 515.503 1171.93 515.74 1172.52 515.858C1171.81 515.858 1171.22 515.621 1170.51 515.503ZM1182.45 517.75C1183.16 517.868 1183.76 517.987 1184.46 518.223C1183.76 518.105 1183.16 517.987 1182.45 517.75ZM1186.48 518.578C1187.19 518.696 1187.89 518.933 1188.49 519.051C1187.78 518.933 1187.07 518.696 1186.48 518.578ZM1198.18 521.417C1198.89 521.535 1199.49 521.771 1200.19 522.008C1199.49 521.771 1198.89 521.653 1198.18 521.417ZM1213.32 525.911C1213.91 526.147 1214.51 526.384 1215.21 526.502C1214.62 526.265 1214.03 526.029 1213.32 525.911ZM1216.99 527.212C1217.58 527.448 1218.17 527.685 1218.88 527.921C1218.29 527.685 1217.7 527.448 1216.99 527.212ZM1220.66 528.631C1221.25 528.868 1221.84 529.104 1222.55 529.341C1221.96 529.104 1221.36 528.868 1220.66 528.631ZM1231.3 532.889C1231.89 533.125 1232.48 533.48 1233.19 533.717C1232.6 533.48 1232.01 533.125 1231.3 532.889ZM1238.16 536.2C1238.16 536.2 1239.34 536.792 1239.93 537.028C1239.34 536.792 1238.75 536.437 1238.16 536.2ZM1241.47 537.856C1241.47 537.856 1242.53 538.447 1243.13 538.684C1242.53 538.447 1242.06 538.093 1241.47 537.856ZM1244.78 539.63C1244.78 539.63 1245.85 540.221 1246.44 540.576C1245.85 540.221 1245.37 539.985 1244.78 539.63ZM1300.01 613.666C1300.01 612.129 1300.01 610.473 1299.9 608.935C1299.9 610.591 1300.01 612.129 1300.01 613.666ZM1289.37 552.758C1285.47 542.823 1276.48 519.524 1254.24 495.161C1220.3 458.024 1179.14 446.198 1167.43 443.477C1150.17 439.456 1134.67 437.327 1111.49 438.865C1095.29 439.929 1078.26 443.951 1060.99 450.574C1044.2 457.078 1027.17 467.723 1017.71 475.292C1005.88 484.872 993.934 495.279 979.505 516.567C975.366 522.599 964.958 539.275 957.98 562.456C951.83 582.916 950.884 599.237 950.647 609.882C951.83 584.454 969.57 559.262 1003.51 540.221C1025.87 527.448 1048.1 514.794 1070.45 502.021C1088.9 491.495 1107.24 480.969 1125.69 470.561L1248.45 541.522C1248.45 541.522 1248.09 541.286 1247.86 541.168C1248.8 541.641 1249.63 542.232 1250.58 542.705C1281.56 561.273 1298 584.927 1299.78 608.817C1299.42 601.248 1299.07 592.496 1297.88 585.755C1296.94 580.314 1294.34 565.767 1289.25 552.64L1289.37 552.758ZM1003.63 540.458C1004.7 539.867 1005.76 539.275 1006.94 538.684C1005.88 539.275 1004.81 539.867 1003.63 540.458Z" fill="#0F1114"/>
<path d="M1248.45 541.638C1249.16 541.993 1249.87 542.466 1250.58 542.939C1317.87 583.15 1316.22 647.252 1247.03 686.044L1125.69 470.795C1162.47 492.083 1211.55 520.468 1248.45 541.756V541.638Z" fill="#0F1114"/>
<path d="M1095.17 441.103C1075.77 444.533 1056.85 451.156 1039.82 460.736C1011.91 476.584 990.266 497.872 973.826 525.902C965.074 540.804 959.397 557.362 957.623 563.985C955.968 570.135 953.839 578.414 952.893 584.8C951.71 593.079 951 604.196 950.646 612.593C950.646 638.021 966.967 663.567 1000.08 683.436C1067.38 723.648 1177.96 724.712 1247.15 685.92C1253.65 600.293 1233.9 486.519 1095.17 440.985V441.103Z" fill="#93B73B"/>
<path d="M1298.83 592.609C1298.12 586.222 1296.7 577.707 1295.05 571.557C1290.2 553.107 1285.35 541.281 1276.83 526.024C1273.17 519.519 1267.49 511.24 1262.88 505.327C1258.26 499.413 1251.4 492.199 1246.08 486.877C1242.65 483.447 1237.68 479.189 1233.9 476.233C1228.34 472.093 1220.77 466.771 1214.86 463.105C1200.19 454.116 1169.44 438.978 1126.99 438.387C1116.34 438.268 1020.66 535.012 1010.02 536.904C1182.1 610.941 1247.15 616.027 1247.03 686.042C1282.15 666.291 1299.89 640.035 1300.01 613.779C1300.01 607.393 1299.54 598.995 1298.83 592.609Z" fill="#852600"/>
<path d="M1124.15 315.163L1246.91 386.124C1179.5 347.095 1070.46 346.504 1001.98 384.823C1024.33 372.05 1046.57 359.395 1068.92 346.622C1087.37 336.096 1105.7 325.57 1124.15 315.163Z" fill="#0F1114"/>
<path d="M1124.15 315.163L1245.49 530.412C1176.3 569.204 1065.72 568.139 998.425 527.928C931.13 487.717 932.786 423.615 1001.97 384.823C1042.66 361.642 1083.46 338.343 1124.15 315.163Z" fill="#0F1114"/>
<path d="M1020.55 375.834C1021.14 375.598 1021.73 375.361 1022.44 375.006C1021.85 375.243 1021.14 375.479 1020.55 375.834ZM1038.76 369.093C1039.35 368.856 1040.06 368.62 1040.65 368.501C1040.06 368.738 1039.35 368.856 1038.76 369.093ZM1065.96 361.996C1066.67 361.878 1067.38 361.76 1068.09 361.524C1067.38 361.642 1066.67 361.76 1065.96 361.996ZM1073.88 360.577C1074.59 360.459 1075.3 360.341 1076.01 360.223C1075.3 360.223 1074.59 360.459 1073.88 360.577ZM1077.91 359.868C1078.62 359.868 1079.32 359.631 1080.03 359.513C1079.32 359.513 1078.62 359.749 1077.91 359.868ZM1086.07 358.803C1086.78 358.803 1087.49 358.567 1088.2 358.567C1087.49 358.567 1086.78 358.685 1086.07 358.803ZM1090.21 358.33C1090.92 358.33 1091.62 358.212 1092.33 358.094C1091.62 358.094 1090.92 358.212 1090.21 358.33ZM1094.46 357.857C1095.17 357.857 1095.76 357.739 1096.47 357.621C1095.76 357.621 1095.17 357.739 1094.46 357.857ZM1098.48 357.503C1099.19 357.503 1099.9 357.502 1100.61 357.384C1099.9 357.384 1099.19 357.384 1098.48 357.503ZM1102.62 357.148C1103.33 357.148 1104.04 357.148 1104.63 357.029C1103.92 357.029 1103.22 357.03 1102.62 357.148ZM1106.88 356.911C1107.59 356.911 1108.3 356.911 1108.89 356.911C1108.18 356.911 1107.47 356.911 1106.88 356.911ZM1140.12 356.911C1140.82 356.911 1141.53 356.911 1142.24 357.029C1141.53 357.029 1140.82 357.029 1140.12 356.911ZM1144.25 357.148C1144.96 357.148 1145.67 357.148 1146.38 357.266C1145.67 357.266 1144.96 357.266 1144.25 357.148ZM1148.39 357.503C1149.1 357.503 1149.81 357.621 1150.52 357.739C1149.81 357.739 1149.1 357.621 1148.39 357.503ZM1152.53 357.857C1153.24 357.857 1153.95 357.976 1154.54 358.094C1153.83 358.094 1153.12 357.976 1152.53 357.857ZM1156.67 358.33C1157.38 358.33 1157.97 358.449 1158.68 358.567C1157.97 358.567 1157.38 358.448 1156.67 358.33ZM1164.83 359.395C1165.54 359.395 1166.25 359.631 1166.84 359.631C1166.13 359.631 1165.54 359.395 1164.83 359.395ZM1168.85 359.986C1169.56 359.986 1170.27 360.223 1170.86 360.341C1170.16 360.341 1169.56 360.104 1168.85 359.986ZM1180.92 362.115C1181.63 362.233 1182.22 362.352 1182.93 362.588C1182.22 362.47 1181.63 362.351 1180.92 362.115ZM1184.94 362.943C1185.65 363.061 1186.36 363.298 1186.95 363.416C1186.24 363.298 1185.53 363.061 1184.94 362.943ZM1196.65 365.781C1197.36 365.899 1197.95 366.136 1198.66 366.373C1197.95 366.136 1197.36 366.018 1196.65 365.781ZM1211.79 370.394C1212.38 370.63 1212.97 370.867 1213.68 370.985C1213.09 370.748 1212.5 370.512 1211.79 370.394ZM1215.45 371.695C1216.04 371.931 1216.63 372.168 1217.34 372.404C1216.75 372.168 1216.16 371.931 1215.45 371.695ZM1219.12 372.996C1219.71 373.232 1220.3 373.469 1221.01 373.705C1220.42 373.469 1219.83 373.232 1219.12 372.996ZM1229.76 377.372C1230.35 377.608 1230.95 377.963 1231.65 378.2C1231.06 377.963 1230.47 377.608 1229.76 377.372ZM1236.5 380.565C1236.5 380.565 1237.69 381.156 1238.28 381.393C1237.69 381.156 1237.1 380.801 1236.5 380.565ZM1239.93 382.221C1239.93 382.221 1241 382.812 1241.59 383.048C1241 382.812 1240.53 382.457 1239.93 382.221ZM1243.13 383.995C1243.13 383.995 1244.19 384.586 1244.78 384.941C1244.19 384.586 1243.72 384.349 1243.13 383.995ZM1298.48 458.149C1298.48 456.612 1298.48 454.956 1298.36 453.418C1298.36 455.074 1298.48 456.612 1298.48 458.149ZM1287.83 397.241C1283.93 387.306 1274.94 364.007 1252.71 339.644C1218.76 302.507 1177.61 290.681 1165.9 287.96C1148.63 283.939 1133.14 281.81 1109.96 283.348C1093.75 284.412 1076.72 288.434 1059.46 295.057C1042.66 301.561 1025.63 312.206 1016.17 319.775C1004.34 329.355 992.397 339.762 977.968 361.05C973.829 367.082 963.421 383.758 956.444 406.939C950.294 427.399 949.347 443.72 949.111 454.364C950.294 428.937 968.034 403.746 1001.98 384.704C1024.33 371.931 1046.56 359.276 1068.92 346.503C1087.37 335.977 1105.7 325.451 1124.15 315.044L1246.91 386.005C1246.91 386.005 1246.56 385.769 1246.32 385.65C1247.27 386.123 1248.09 386.715 1249.04 387.188C1280.03 405.756 1296.47 429.41 1298.24 453.3C1297.89 445.731 1297.53 436.979 1296.35 430.238C1295.4 424.797 1292.8 410.25 1287.71 397.122L1287.83 397.241ZM1001.98 384.823C1003.04 384.231 1004.11 383.64 1005.29 383.048C1004.22 383.64 1003.16 384.231 1001.98 384.823Z" fill="#0F1114"/>
<path d="M1246.9 386.121C1247.61 386.476 1248.32 386.949 1249.03 387.422C1316.33 427.633 1314.67 491.735 1245.48 530.527L1124.14 315.278C1160.92 336.566 1210 364.951 1246.9 386.239V386.121Z" fill="#0F1114"/>
<path d="M1093.63 285.587C1074.24 289.017 1055.31 295.64 1038.28 305.219C1010.37 321.067 988.729 342.356 972.29 370.386C963.538 385.287 957.861 401.845 956.087 408.468C954.431 414.618 952.302 422.897 951.356 429.283C950.173 437.562 949.464 448.679 949.109 457.076C949.109 482.504 965.43 508.05 998.545 527.919C1065.84 568.131 1176.42 569.195 1245.61 530.403C1252.11 444.777 1232.36 331.002 1093.63 285.468V285.587Z" fill="#93B73B"/>
<path d="M1297.3 436.975C1296.59 430.589 1295.17 422.073 1293.51 415.923C1288.67 397.473 1283.82 385.646 1275.3 370.39C1271.63 363.885 1265.96 355.606 1261.34 349.693C1256.73 343.779 1249.87 336.565 1244.55 331.243C1241.12 327.813 1236.15 323.555 1232.37 320.598C1226.81 316.459 1219.24 311.137 1213.33 307.471C1198.66 298.482 1167.91 283.344 1125.45 282.752C1114.81 282.634 1104.17 283.58 1093.52 285.472C1249.28 342.715 1245.62 460.392 1245.5 530.407C1280.62 510.657 1298.36 484.401 1298.48 458.145C1298.48 451.758 1298.01 443.362 1297.3 436.975Z" fill="#852600"/>
</svg>
