<svg width="320" height="178" viewBox="0 0 320 178" fill="none" xmlns="http://www.w3.org/2000/svg">
<g filter="url(#filter0_d_2_831)">
<rect x="4" width="312" height="170" rx="8" fill="white" shape-rendering="crispEdges"/>
<rect x="4.5" y="0.5" width="311" height="169" rx="7.5" stroke="#C1CAD9" shape-rendering="crispEdges"/>
<path d="M26 32C31.5228 32 36 27.5229 36 22C36 16.4772 31.5228 12 26 12C20.4771 12 16 16.4772 16 22C16 27.5229 20.4771 32 26 32Z" fill="#FFC936"/>
<path d="M25.9956 24.8815C27.5869 24.8815 28.877 23.5915 28.877 22.0002C28.877 20.4089 27.5869 19.1188 25.9956 19.1188C24.4043 19.1188 23.1143 20.4089 23.1143 22.0002C23.1143 23.5915 24.4043 24.8815 25.9956 24.8815Z" fill="white"/>
<path d="M43.01 26V18.216H40.364V16.844H47.28V18.216H44.634V26H43.01ZM51.9494 26.168C51.1561 26.168 50.4561 25.9767 49.8494 25.594C49.2428 25.202 48.7668 24.6513 48.4214 23.942C48.0854 23.2233 47.9174 22.3693 47.9174 21.38C47.9174 20.3907 48.0854 19.546 48.4214 18.846C48.7668 18.146 49.2428 17.6093 49.8494 17.236C50.4561 16.8627 51.1561 16.676 51.9494 16.676C52.7521 16.676 53.4568 16.8627 54.0634 17.236C54.6701 17.6093 55.1414 18.146 55.4774 18.846C55.8228 19.546 55.9954 20.3907 55.9954 21.38C55.9954 22.3693 55.8228 23.2233 55.4774 23.942C55.1414 24.6513 54.6701 25.202 54.0634 25.594C53.4568 25.9767 52.7521 26.168 51.9494 26.168ZM51.9494 24.754C52.6681 24.754 53.2421 24.4507 53.6714 23.844C54.1008 23.228 54.3154 22.4067 54.3154 21.38C54.3154 20.3533 54.1008 19.5507 53.6714 18.972C53.2421 18.384 52.6681 18.09 51.9494 18.09C51.2308 18.09 50.6568 18.384 50.2274 18.972C49.7981 19.5507 49.5834 20.3533 49.5834 21.38C49.5834 22.4067 49.7981 23.228 50.2274 23.844C50.6568 24.4507 51.2308 24.754 51.9494 24.754ZM57.785 26V16.844H60.235C61.635 16.844 62.727 17.222 63.511 17.978C64.295 18.734 64.687 19.868 64.687 21.38C64.687 22.9013 64.2997 24.054 63.525 24.838C62.7504 25.6127 61.6817 26 60.319 26H57.785ZM59.409 24.684H60.123C61.047 24.684 61.761 24.418 62.265 23.886C62.769 23.3447 63.021 22.5093 63.021 21.38C63.021 20.26 62.769 19.4433 62.265 18.93C61.761 18.4167 61.047 18.16 60.123 18.16H59.409V24.684ZM68.2323 21.128L67.9103 22.248H70.2483L69.9263 21.128C69.777 20.6427 69.6323 20.1433 69.4923 19.63C69.3616 19.1167 69.231 18.608 69.1003 18.104H69.0443C68.923 18.6173 68.7923 19.1307 68.6523 19.644C68.5216 20.148 68.3816 20.6427 68.2323 21.128ZM65.1663 26L68.1483 16.844H70.0523L73.0343 26H71.3263L70.6123 23.522H67.5323L66.8183 26H65.1663ZM75.4282 26V22.598L72.6842 16.844H74.4202L75.4142 19.182C75.5449 19.5273 75.6755 19.8633 75.8062 20.19C75.9369 20.5073 76.0769 20.8433 76.2262 21.198H76.2822C76.4315 20.8433 76.5762 20.5073 76.7162 20.19C76.8562 19.8633 76.9915 19.5273 77.1222 19.182L78.1162 16.844H79.8102L77.0522 22.598V26H75.4282ZM81.0419 20.526L80.6499 19.812C81.0325 19.588 81.3219 19.3407 81.5179 19.07C81.7139 18.79 81.8119 18.4493 81.8119 18.048C81.7839 18.0573 81.7419 18.062 81.6859 18.062C81.4432 18.062 81.2285 17.9873 81.0419 17.838C80.8645 17.6793 80.7759 17.4647 80.7759 17.194C80.7759 16.8953 80.8599 16.662 81.0279 16.494C81.2052 16.3167 81.4245 16.228 81.6859 16.228C82.0405 16.228 82.3112 16.3633 82.4979 16.634C82.6939 16.9047 82.7919 17.2873 82.7919 17.782C82.7919 19.0047 82.2085 19.9193 81.0419 20.526ZM87.3613 26.168C86.7453 26.168 86.148 26.0513 85.5693 25.818C85 25.5847 84.496 25.2533 84.0573 24.824L85.0093 23.718C85.336 24.026 85.7093 24.278 86.1293 24.474C86.5493 24.6607 86.9693 24.754 87.3893 24.754C87.912 24.754 88.3087 24.6467 88.5793 24.432C88.85 24.2173 88.9853 23.9327 88.9853 23.578C88.9853 23.1953 88.85 22.92 88.5793 22.752C88.318 22.584 87.982 22.4113 87.5713 22.234L86.3113 21.688C86.0127 21.5573 85.7187 21.3893 85.4293 21.184C85.1493 20.9787 84.916 20.7173 84.7293 20.4C84.552 20.0827 84.4633 19.7 84.4633 19.252C84.4633 18.7667 84.594 18.3327 84.8553 17.95C85.126 17.558 85.49 17.25 85.9473 17.026C86.414 16.7927 86.946 16.676 87.5433 16.676C88.0753 16.676 88.5887 16.7833 89.0833 16.998C89.578 17.2033 90.0027 17.4833 90.3573 17.838L89.5313 18.874C89.242 18.6313 88.934 18.44 88.6073 18.3C88.29 18.16 87.9353 18.09 87.5433 18.09C87.114 18.09 86.764 18.188 86.4933 18.384C86.232 18.5707 86.1013 18.832 86.1013 19.168C86.1013 19.4013 86.1667 19.5973 86.2973 19.756C86.4373 19.9053 86.6193 20.036 86.8433 20.148C87.0673 20.2507 87.3053 20.3533 87.5573 20.456L88.8033 20.974C89.3447 21.2073 89.788 21.5153 90.1333 21.898C90.4787 22.2713 90.6513 22.7893 90.6513 23.452C90.6513 23.9467 90.5207 24.3993 90.2593 24.81C89.998 25.2207 89.62 25.552 89.1253 25.804C88.64 26.0467 88.052 26.168 87.3613 26.168ZM98.871 26.168C98.0497 26.168 97.3123 25.986 96.659 25.622C96.0057 25.258 95.4923 24.726 95.119 24.026C94.7457 23.3167 94.559 22.458 94.559 21.45C94.559 20.4513 94.7503 19.5973 95.133 18.888C95.5157 18.1693 96.0337 17.6233 96.687 17.25C97.3403 16.8673 98.073 16.676 98.885 16.676C99.5383 16.676 100.089 16.7973 100.537 17.04C100.994 17.2733 101.368 17.5393 101.657 17.838L100.789 18.888C100.556 18.664 100.294 18.4773 100.005 18.328C99.725 18.1693 99.3703 18.09 98.941 18.09C98.129 18.09 97.471 18.3887 96.967 18.986C96.4723 19.574 96.225 20.3813 96.225 21.408C96.225 22.4533 96.463 23.2747 96.939 23.872C97.415 24.46 98.1103 24.754 99.025 24.754C99.2863 24.754 99.5337 24.7213 99.767 24.656C100 24.5813 100.192 24.4787 100.341 24.348V22.374H98.605V21.044H101.797V25.076C101.489 25.384 101.078 25.6453 100.565 25.86C100.061 26.0653 99.4963 26.168 98.871 26.168ZM107.34 26.168C106.547 26.168 105.847 25.9767 105.24 25.594C104.633 25.202 104.157 24.6513 103.812 23.942C103.476 23.2233 103.308 22.3693 103.308 21.38C103.308 20.3907 103.476 19.546 103.812 18.846C104.157 18.146 104.633 17.6093 105.24 17.236C105.847 16.8627 106.547 16.676 107.34 16.676C108.143 16.676 108.847 16.8627 109.454 17.236C110.061 17.6093 110.532 18.146 110.868 18.846C111.213 19.546 111.386 20.3907 111.386 21.38C111.386 22.3693 111.213 23.2233 110.868 23.942C110.532 24.6513 110.061 25.202 109.454 25.594C108.847 25.9767 108.143 26.168 107.34 26.168ZM107.34 24.754C108.059 24.754 108.633 24.4507 109.062 23.844C109.491 23.228 109.706 22.4067 109.706 21.38C109.706 20.3533 109.491 19.5507 109.062 18.972C108.633 18.384 108.059 18.09 107.34 18.09C106.621 18.09 106.047 18.384 105.618 18.972C105.189 19.5507 104.974 20.3533 104.974 21.38C104.974 22.4067 105.189 23.228 105.618 23.844C106.047 24.4507 106.621 24.754 107.34 24.754ZM114.915 21.128L114.593 22.248H116.931L116.609 21.128C116.46 20.6427 116.315 20.1433 116.175 19.63C116.044 19.1167 115.914 18.608 115.783 18.104H115.727C115.606 18.6173 115.475 19.1307 115.335 19.644C115.204 20.148 115.064 20.6427 114.915 21.128ZM111.849 26L114.831 16.844H116.735L119.717 26H118.009L117.295 23.522H114.215L113.501 26H111.849ZM120.804 26V16.844H122.428V24.628H126.236V26H120.804Z" fill="#0F1114"/>
<path d="M287.948 25V24.184H289.7V18.544H288.308V17.908C288.652 17.844 288.956 17.768 289.22 17.68C289.484 17.584 289.72 17.472 289.928 17.344H290.684V24.184H292.268V25H287.948ZM293.085 26.92L296.289 16.48H297.009L293.805 26.92H293.085ZM299.968 25.144C299.56 25.144 299.2 25.096 298.888 25C298.576 24.896 298.304 24.764 298.072 24.604C297.84 24.444 297.636 24.276 297.46 24.1L297.94 23.452C298.172 23.676 298.44 23.88 298.744 24.064C299.048 24.24 299.424 24.328 299.872 24.328C300.184 24.328 300.464 24.256 300.712 24.112C300.968 23.968 301.172 23.768 301.324 23.512C301.476 23.248 301.552 22.936 301.552 22.576C301.552 22.048 301.404 21.636 301.108 21.34C300.812 21.044 300.416 20.896 299.92 20.896C299.664 20.896 299.44 20.936 299.248 21.016C299.056 21.096 298.844 21.212 298.612 21.364L298.084 21.028L298.336 17.344H302.164V18.196H299.2L298.996 20.464C299.18 20.368 299.364 20.292 299.548 20.236C299.732 20.18 299.94 20.152 300.172 20.152C300.612 20.152 301.012 20.236 301.372 20.404C301.732 20.572 302.016 20.836 302.224 21.196C302.44 21.548 302.548 22 302.548 22.552C302.548 23.104 302.424 23.576 302.176 23.968C301.936 24.352 301.62 24.644 301.228 24.844C300.836 25.044 300.416 25.144 299.968 25.144Z" fill="white"/>
<line x1="304" y1="40.25" x2="16" y2="40.25" stroke="#C1CAD9" stroke-width="0.5"/>
<path d="M18.58 61V54.328H16.312V53.152H22.24V54.328H19.972V61H18.58ZM23.5108 61V53.152H24.9028V61H23.5108ZM26.8615 61V53.152H28.4335L29.8255 56.992C29.9135 57.24 29.9975 57.496 30.0775 57.76C30.1655 58.016 30.2495 58.272 30.3295 58.528H30.3775C30.4655 58.272 30.5495 58.016 30.6295 57.76C30.7095 57.496 30.7895 57.24 30.8695 56.992L32.2255 53.152H33.8095V61H32.5255V57.412C32.5255 57.164 32.5335 56.896 32.5495 56.608C32.5735 56.312 32.5975 56.016 32.6215 55.72C32.6535 55.424 32.6815 55.156 32.7055 54.916H32.6575L32.0215 56.74L30.7375 60.268H29.9095L28.6135 56.74L27.9895 54.916H27.9415C27.9655 55.156 27.9895 55.424 28.0135 55.72C28.0455 56.016 28.0695 56.312 28.0855 56.608C28.1095 56.896 28.1215 57.164 28.1215 57.412V61H26.8615ZM35.7669 61V53.152H40.4949V54.328H37.1589V56.332H39.9789V57.508H37.1589V59.824H40.6149V61H35.7669Z" fill="#0F1114"/>
<path d="M287.948 61V60.184H289.7V54.544H288.308V53.908C288.652 53.844 288.956 53.768 289.22 53.68C289.484 53.584 289.72 53.472 289.928 53.344H290.684V60.184H292.268V61H287.948ZM293.085 62.92L296.289 52.48H297.009L293.805 62.92H293.085ZM299.968 61.144C299.56 61.144 299.2 61.096 298.888 61C298.576 60.896 298.304 60.764 298.072 60.604C297.84 60.444 297.636 60.276 297.46 60.1L297.94 59.452C298.172 59.676 298.44 59.88 298.744 60.064C299.048 60.24 299.424 60.328 299.872 60.328C300.184 60.328 300.464 60.256 300.712 60.112C300.968 59.968 301.172 59.768 301.324 59.512C301.476 59.248 301.552 58.936 301.552 58.576C301.552 58.048 301.404 57.636 301.108 57.34C300.812 57.044 300.416 56.896 299.92 56.896C299.664 56.896 299.44 56.936 299.248 57.016C299.056 57.096 298.844 57.212 298.612 57.364L298.084 57.028L298.336 53.344H302.164V54.196H299.2L298.996 56.464C299.18 56.368 299.364 56.292 299.548 56.236C299.732 56.18 299.94 56.152 300.172 56.152C300.612 56.152 301.012 56.236 301.372 56.404C301.732 56.572 302.016 56.836 302.224 57.196C302.44 57.548 302.548 58 302.548 58.552C302.548 59.104 302.424 59.576 302.176 59.968C301.936 60.352 301.62 60.644 301.228 60.844C300.836 61.044 300.416 61.144 299.968 61.144Z" fill="white"/>
<rect x="16" y="74" width="288" height="25" rx="4" fill="#DAE1ED"/>
<path d="M24.536 91.5V90.184H26.524V84.332H24.886V83.324C25.3247 83.24 25.7073 83.142 26.034 83.03C26.3607 82.9087 26.664 82.764 26.944 82.596H28.148V90.184H29.898V91.5H24.536ZM34.0517 91.668C33.3331 91.668 32.7264 91.5467 32.2317 91.304C31.7464 91.052 31.3404 90.7627 31.0137 90.436L31.7557 89.4C32.0264 89.652 32.3297 89.876 32.6657 90.072C33.0017 90.2587 33.3937 90.352 33.8417 90.352C34.3364 90.352 34.7471 90.2027 35.0737 89.904C35.4004 89.6053 35.5637 89.1853 35.5637 88.644C35.5637 88.112 35.4144 87.7013 35.1157 87.412C34.8171 87.1227 34.4204 86.978 33.9257 86.978C33.6364 86.978 33.3937 87.02 33.1977 87.104C33.0017 87.1787 32.7684 87.3047 32.4977 87.482L31.7277 86.992L31.9937 82.596H36.7537V83.954H33.3937L33.2117 86.11C33.3984 86.0167 33.5804 85.9467 33.7577 85.9C33.9444 85.844 34.1544 85.816 34.3877 85.816C34.9011 85.816 35.3677 85.914 35.7877 86.11C36.2077 86.306 36.5437 86.6093 36.7957 87.02C37.0571 87.4307 37.1877 87.958 37.1877 88.602C37.1877 89.246 37.0384 89.7967 36.7397 90.254C36.4504 90.7113 36.0677 91.0613 35.5917 91.304C35.1157 91.5467 34.6024 91.668 34.0517 91.668ZM41.9182 91.5V82.316H43.3182L45.0822 87.216C45.1942 87.5333 45.3015 87.8553 45.4042 88.182C45.5162 88.4993 45.6282 88.8167 45.7402 89.134H45.7962C45.9082 88.8167 46.0109 88.4993 46.1042 88.182C46.2069 87.8553 46.3142 87.5333 46.4262 87.216L48.1622 82.316H49.5762V91.5H48.4842V86.446C48.4842 86.0353 48.5029 85.5827 48.5402 85.088C48.5775 84.584 48.6102 84.1313 48.6382 83.73H48.5822L47.8542 85.816L46.1182 90.576H45.3482L43.6122 85.816L42.8842 83.73H42.8282C42.8562 84.1313 42.8842 84.584 42.9122 85.088C42.9495 85.5827 42.9682 86.0353 42.9682 86.446V91.5H41.9182ZM51.9781 91.5V84.696H53.1261V91.5H51.9781ZM52.5661 83.296C52.3421 83.296 52.1554 83.2307 52.0061 83.1C51.8661 82.96 51.7961 82.7733 51.7961 82.54C51.7961 82.316 51.8661 82.134 52.0061 81.994C52.1554 81.854 52.3421 81.784 52.5661 81.784C52.7901 81.784 52.9721 81.854 53.1121 81.994C53.2614 82.134 53.3361 82.316 53.3361 82.54C53.3361 82.7733 53.2614 82.96 53.1121 83.1C52.9721 83.2307 52.7901 83.296 52.5661 83.296ZM55.4234 91.5V84.696H56.3754L56.4734 85.676H56.5154C56.8421 85.3493 57.1874 85.0787 57.5514 84.864C57.9154 84.64 58.3307 84.528 58.7974 84.528C59.5161 84.528 60.0387 84.7567 60.3654 85.214C60.7014 85.662 60.8694 86.32 60.8694 87.188V91.5H59.7214V87.342C59.7214 86.7073 59.6187 86.2453 59.4134 85.956C59.2081 85.6667 58.8814 85.522 58.4334 85.522C58.0881 85.522 57.7754 85.6107 57.4954 85.788C57.2247 85.9653 56.9167 86.2267 56.5714 86.572V91.5H55.4234ZM65.0676 91.668C64.349 91.668 63.8216 91.444 63.4856 90.996C63.1496 90.5387 62.9816 89.876 62.9816 89.008V84.696H64.1436V88.854C64.1436 89.4887 64.2416 89.9507 64.4376 90.24C64.643 90.5293 64.9696 90.674 65.4176 90.674C65.7723 90.674 66.085 90.5853 66.3556 90.408C66.6356 90.2213 66.9343 89.9273 67.2516 89.526V84.696H68.3996V91.5H67.4476L67.3496 90.436H67.3076C66.9903 90.8093 66.6543 91.108 66.2996 91.332C65.945 91.556 65.5343 91.668 65.0676 91.668ZM72.8369 91.668C72.1089 91.668 71.6002 91.458 71.3109 91.038C71.0309 90.618 70.8909 90.072 70.8909 89.4V85.634H69.8829V84.766L70.9469 84.696L71.0869 82.792H72.0529V84.696H73.8869V85.634H72.0529V89.414C72.0529 89.834 72.1275 90.1607 72.2769 90.394C72.4355 90.618 72.7109 90.73 73.1029 90.73C73.2242 90.73 73.3549 90.7113 73.4949 90.674C73.6349 90.6273 73.7609 90.5853 73.8729 90.548L74.0969 91.416C73.9102 91.4813 73.7049 91.5373 73.4809 91.584C73.2662 91.64 73.0515 91.668 72.8369 91.668ZM77.9919 91.668C77.3853 91.668 76.8346 91.528 76.3399 91.248C75.8453 90.9587 75.4533 90.548 75.1639 90.016C74.8746 89.484 74.7299 88.8493 74.7299 88.112C74.7299 87.3653 74.8746 86.726 75.1639 86.194C75.4626 85.662 75.8453 85.2513 76.3119 84.962C76.7786 84.6727 77.2686 84.528 77.7819 84.528C78.6499 84.528 79.3173 84.8173 79.7839 85.396C80.2599 85.9747 80.4979 86.7493 80.4979 87.72C80.4979 87.8413 80.4933 87.9627 80.4839 88.084C80.4839 88.196 80.4746 88.294 80.4559 88.378H75.8639C75.9106 89.0967 76.1346 89.6707 76.5359 90.1C76.9466 90.5293 77.4786 90.744 78.1319 90.744C78.4586 90.744 78.7573 90.6973 79.0279 90.604C79.3079 90.5013 79.5739 90.3707 79.8259 90.212L80.2319 90.968C79.9426 91.1547 79.6113 91.318 79.2379 91.458C78.8739 91.598 78.4586 91.668 77.9919 91.668ZM75.8499 87.552H79.4899C79.4899 86.8613 79.3406 86.3387 79.0419 85.984C78.7526 85.62 78.3419 85.438 77.8099 85.438C77.3339 85.438 76.9046 85.6247 76.5219 85.998C76.1486 86.362 75.9246 86.88 75.8499 87.552ZM83.9573 91.668C83.4719 91.668 83.0099 91.5793 82.5713 91.402C82.1326 91.2153 81.7499 90.9913 81.4233 90.73L81.9973 89.96C82.2959 90.1933 82.6039 90.3893 82.9213 90.548C83.2386 90.6973 83.5979 90.772 83.9993 90.772C84.4473 90.772 84.7833 90.6693 85.0073 90.464C85.2313 90.2493 85.3433 89.9973 85.3433 89.708C85.3433 89.4747 85.2639 89.2787 85.1053 89.12C84.9559 88.9613 84.7599 88.8307 84.5173 88.728C84.2839 88.616 84.0413 88.5133 83.7893 88.42C83.4719 88.2987 83.1593 88.1633 82.8513 88.014C82.5433 87.8553 82.2913 87.6547 82.0953 87.412C81.8993 87.16 81.8013 86.8427 81.8013 86.46C81.8013 85.9093 82.0066 85.452 82.4173 85.088C82.8373 84.7147 83.4159 84.528 84.1533 84.528C84.5733 84.528 84.9653 84.6027 85.3293 84.752C85.6933 84.9013 86.0059 85.0833 86.2673 85.298L85.7073 86.026C85.4739 85.8487 85.2313 85.704 84.9793 85.592C84.7273 85.48 84.4519 85.424 84.1533 85.424C83.7239 85.424 83.4066 85.522 83.2013 85.718C83.0053 85.914 82.9073 86.1427 82.9073 86.404C82.9073 86.6187 82.9773 86.796 83.1173 86.936C83.2573 87.0667 83.4393 87.1833 83.6633 87.286C83.8873 87.3793 84.1253 87.4773 84.3773 87.58C84.7039 87.7013 85.0259 87.8413 85.3433 88C85.6606 88.1493 85.9219 88.3547 86.1273 88.616C86.3419 88.868 86.4493 89.2087 86.4493 89.638C86.4493 90.002 86.3513 90.338 86.1553 90.646C85.9686 90.954 85.6886 91.2013 85.3153 91.388C84.9513 91.5747 84.4986 91.668 83.9573 91.668ZM94.63 89.498C94.21 89.498 93.8413 89.344 93.524 89.036C93.216 88.728 93.062 88.322 93.062 87.818C93.062 87.314 93.216 86.908 93.524 86.6C93.8413 86.2827 94.21 86.124 94.63 86.124C95.05 86.124 95.414 86.2827 95.722 86.6C96.0393 86.908 96.198 87.314 96.198 87.818C96.198 88.322 96.0393 88.728 95.722 89.036C95.414 89.344 95.05 89.498 94.63 89.498ZM105.733 91.668C105.015 91.668 104.408 91.5467 103.913 91.304C103.428 91.052 103.022 90.7627 102.695 90.436L103.437 89.4C103.708 89.652 104.011 89.876 104.347 90.072C104.683 90.2587 105.075 90.352 105.523 90.352C106.018 90.352 106.429 90.2027 106.755 89.904C107.082 89.6053 107.245 89.1853 107.245 88.644C107.245 88.112 107.096 87.7013 106.797 87.412C106.499 87.1227 106.102 86.978 105.607 86.978C105.318 86.978 105.075 87.02 104.879 87.104C104.683 87.1787 104.45 87.3047 104.179 87.482L103.409 86.992L103.675 82.596H108.435V83.954H105.075L104.893 86.11C105.08 86.0167 105.262 85.9467 105.439 85.9C105.626 85.844 105.836 85.816 106.069 85.816C106.583 85.816 107.049 85.914 107.469 86.11C107.889 86.306 108.225 86.6093 108.477 87.02C108.739 87.4307 108.869 87.958 108.869 88.602C108.869 89.246 108.72 89.7967 108.421 90.254C108.132 90.7113 107.749 91.0613 107.273 91.304C106.797 91.5467 106.284 91.668 105.733 91.668ZM114.706 91.668C114.277 91.668 113.964 91.5373 113.768 91.276C113.581 91.0053 113.488 90.6227 113.488 90.128V81.532H114.636V90.212C114.636 90.3893 114.669 90.52 114.734 90.604C114.799 90.6787 114.874 90.716 114.958 90.716C114.995 90.716 115.028 90.716 115.056 90.716C115.093 90.7067 115.145 90.6973 115.21 90.688L115.364 91.556C115.289 91.5933 115.201 91.6213 115.098 91.64C114.995 91.6587 114.865 91.668 114.706 91.668ZM119.814 91.668C119.208 91.668 118.657 91.528 118.162 91.248C117.668 90.9587 117.276 90.548 116.986 90.016C116.697 89.484 116.552 88.8493 116.552 88.112C116.552 87.3653 116.697 86.726 116.986 86.194C117.285 85.662 117.668 85.2513 118.134 84.962C118.601 84.6727 119.091 84.528 119.604 84.528C120.472 84.528 121.14 84.8173 121.606 85.396C122.082 85.9747 122.32 86.7493 122.32 87.72C122.32 87.8413 122.316 87.9627 122.306 88.084C122.306 88.196 122.297 88.294 122.278 88.378H117.686C117.733 89.0967 117.957 89.6707 118.358 90.1C118.769 90.5293 119.301 90.744 119.954 90.744C120.281 90.744 120.58 90.6973 120.85 90.604C121.13 90.5013 121.396 90.3707 121.648 90.212L122.054 90.968C121.765 91.1547 121.434 91.318 121.06 91.458C120.696 91.598 120.281 91.668 119.814 91.668ZM117.672 87.552H121.312C121.312 86.8613 121.163 86.3387 120.864 85.984C120.575 85.62 120.164 85.438 119.632 85.438C119.156 85.438 118.727 85.6247 118.344 85.998C117.971 86.362 117.747 86.88 117.672 87.552ZM125.378 91.668C124.809 91.668 124.333 91.5 123.95 91.164C123.577 90.8187 123.39 90.3427 123.39 89.736C123.39 88.9893 123.721 88.42 124.384 88.028C125.056 87.6267 126.115 87.3467 127.562 87.188C127.562 86.8987 127.52 86.6233 127.436 86.362C127.361 86.1007 127.221 85.8907 127.016 85.732C126.82 85.564 126.535 85.48 126.162 85.48C125.77 85.48 125.401 85.5547 125.056 85.704C124.711 85.8533 124.403 86.0213 124.132 86.208L123.684 85.41C124.001 85.2047 124.389 85.0087 124.846 84.822C125.313 84.626 125.817 84.528 126.358 84.528C127.189 84.528 127.791 84.7847 128.164 85.298C128.537 85.802 128.724 86.4787 128.724 87.328V91.5H127.772L127.674 90.688H127.632C127.315 90.9493 126.965 91.178 126.582 91.374C126.209 91.57 125.807 91.668 125.378 91.668ZM125.714 90.744C126.041 90.744 126.349 90.6647 126.638 90.506C126.927 90.3473 127.235 90.1233 127.562 89.834V87.944C126.433 88.084 125.639 88.294 125.182 88.574C124.734 88.854 124.51 89.2133 124.51 89.652C124.51 90.0347 124.627 90.3147 124.86 90.492C125.093 90.66 125.378 90.744 125.714 90.744ZM130.865 91.5V84.696H131.817L131.915 85.928H131.957C132.19 85.4987 132.475 85.158 132.811 84.906C133.147 84.654 133.506 84.528 133.889 84.528C134.159 84.528 134.402 84.5747 134.617 84.668L134.393 85.676C134.281 85.6387 134.178 85.6107 134.085 85.592C133.991 85.5733 133.875 85.564 133.735 85.564C133.445 85.564 133.142 85.6807 132.825 85.914C132.517 86.1473 132.246 86.5533 132.013 87.132V91.5H130.865ZM135.718 91.5V84.696H136.67L136.768 85.676H136.81C137.137 85.3493 137.482 85.0787 137.846 84.864C138.21 84.64 138.626 84.528 139.092 84.528C139.811 84.528 140.334 84.7567 140.66 85.214C140.996 85.662 141.164 86.32 141.164 87.188V91.5H140.016V87.342C140.016 86.7073 139.914 86.2453 139.708 85.956C139.503 85.6667 139.176 85.522 138.728 85.522C138.383 85.522 138.07 85.6107 137.79 85.788C137.52 85.9653 137.212 86.2267 136.866 86.572V91.5H135.718ZM143.375 91.5V84.696H144.523V91.5H143.375ZM143.963 83.296C143.739 83.296 143.552 83.2307 143.403 83.1C143.263 82.96 143.193 82.7733 143.193 82.54C143.193 82.316 143.263 82.134 143.403 81.994C143.552 81.854 143.739 81.784 143.963 81.784C144.187 81.784 144.369 81.854 144.509 81.994C144.658 82.134 144.733 82.316 144.733 82.54C144.733 82.7733 144.658 82.96 144.509 83.1C144.369 83.2307 144.187 83.296 143.963 83.296ZM146.82 91.5V84.696H147.772L147.87 85.676H147.912C148.239 85.3493 148.584 85.0787 148.948 84.864C149.312 84.64 149.727 84.528 150.194 84.528C150.913 84.528 151.435 84.7567 151.762 85.214C152.098 85.662 152.266 86.32 152.266 87.188V91.5H151.118V87.342C151.118 86.7073 151.015 86.2453 150.81 85.956C150.605 85.6667 150.278 85.522 149.83 85.522C149.485 85.522 149.172 85.6107 148.892 85.788C148.621 85.9653 148.313 86.2267 147.968 86.572V91.5H146.82ZM156.772 94.636C155.941 94.636 155.265 94.4773 154.742 94.16C154.219 93.8427 153.958 93.39 153.958 92.802C153.958 92.5127 154.047 92.2327 154.224 91.962C154.401 91.7007 154.644 91.4673 154.952 91.262V91.206C154.784 91.1033 154.639 90.9587 154.518 90.772C154.406 90.5853 154.35 90.3613 154.35 90.1C154.35 89.8107 154.429 89.5587 154.588 89.344C154.747 89.1293 154.915 88.9613 155.092 88.84V88.784C154.868 88.5973 154.663 88.3453 154.476 88.028C154.299 87.7107 154.21 87.3513 154.21 86.95C154.21 86.4553 154.327 86.026 154.56 85.662C154.793 85.298 155.106 85.018 155.498 84.822C155.89 84.626 156.315 84.528 156.772 84.528C156.959 84.528 157.136 84.5467 157.304 84.584C157.472 84.612 157.617 84.6493 157.738 84.696H160.104V85.578H158.704C158.863 85.7273 158.993 85.928 159.096 86.18C159.208 86.4227 159.264 86.6887 159.264 86.978C159.264 87.4633 159.152 87.8833 158.928 88.238C158.704 88.5927 158.405 88.868 158.032 89.064C157.659 89.2507 157.239 89.344 156.772 89.344C156.408 89.344 156.067 89.2647 155.75 89.106C155.629 89.2087 155.526 89.3253 155.442 89.456C155.358 89.5773 155.316 89.7313 155.316 89.918C155.316 90.1327 155.4 90.31 155.568 90.45C155.745 90.59 156.063 90.66 156.52 90.66H157.836C158.629 90.66 159.222 90.7907 159.614 91.052C160.015 91.304 160.216 91.7147 160.216 92.284C160.216 92.704 160.076 93.0913 159.796 93.446C159.516 93.8007 159.119 94.0853 158.606 94.3C158.093 94.524 157.481 94.636 156.772 94.636ZM156.772 88.574C157.164 88.574 157.5 88.4293 157.78 88.14C158.069 87.8413 158.214 87.4447 158.214 86.95C158.214 86.4553 158.074 86.068 157.794 85.788C157.514 85.508 157.173 85.368 156.772 85.368C156.371 85.368 156.03 85.508 155.75 85.788C155.47 86.068 155.33 86.4553 155.33 86.95C155.33 87.4447 155.47 87.8413 155.75 88.14C156.039 88.4293 156.38 88.574 156.772 88.574ZM156.94 93.838C157.593 93.838 158.116 93.6933 158.508 93.404C158.9 93.124 159.096 92.8067 159.096 92.452C159.096 92.1347 158.975 91.9153 158.732 91.794C158.499 91.6727 158.163 91.612 157.724 91.612H156.548C156.417 91.612 156.273 91.6027 156.114 91.584C155.965 91.5653 155.815 91.5373 155.666 91.5C155.423 91.6773 155.246 91.864 155.134 92.06C155.022 92.256 154.966 92.452 154.966 92.648C154.966 93.012 155.139 93.3013 155.484 93.516C155.839 93.7307 156.324 93.838 156.94 93.838ZM164.334 91.5V84.696H165.482V91.5H164.334ZM164.922 83.296C164.698 83.296 164.511 83.2307 164.362 83.1C164.222 82.96 164.152 82.7733 164.152 82.54C164.152 82.316 164.222 82.134 164.362 81.994C164.511 81.854 164.698 81.784 164.922 81.784C165.146 81.784 165.328 81.854 165.468 81.994C165.617 82.134 165.692 82.316 165.692 82.54C165.692 82.7733 165.617 82.96 165.468 83.1C165.328 83.2307 165.146 83.296 164.922 83.296ZM169.921 91.668C169.193 91.668 168.684 91.458 168.395 91.038C168.115 90.618 167.975 90.072 167.975 89.4V85.634H166.967V84.766L168.031 84.696L168.171 82.792H169.137V84.696H170.971V85.634H169.137V89.414C169.137 89.834 169.212 90.1607 169.361 90.394C169.52 90.618 169.795 90.73 170.187 90.73C170.308 90.73 170.439 90.7113 170.579 90.674C170.719 90.6273 170.845 90.5853 170.957 90.548L171.181 91.416C170.994 91.4813 170.789 91.5373 170.565 91.584C170.35 91.64 170.136 91.668 169.921 91.668ZM175.076 91.668C174.469 91.668 173.919 91.528 173.424 91.248C172.929 90.9587 172.537 90.548 172.248 90.016C171.959 89.484 171.814 88.8493 171.814 88.112C171.814 87.3653 171.959 86.726 172.248 86.194C172.547 85.662 172.929 85.2513 173.396 84.962C173.863 84.6727 174.353 84.528 174.866 84.528C175.734 84.528 176.401 84.8173 176.868 85.396C177.344 85.9747 177.582 86.7493 177.582 87.72C177.582 87.8413 177.577 87.9627 177.568 88.084C177.568 88.196 177.559 88.294 177.54 88.378H172.948C172.995 89.0967 173.219 89.6707 173.62 90.1C174.031 90.5293 174.563 90.744 175.216 90.744C175.543 90.744 175.841 90.6973 176.112 90.604C176.392 90.5013 176.658 90.3707 176.91 90.212L177.316 90.968C177.027 91.1547 176.695 91.318 176.322 91.458C175.958 91.598 175.543 91.668 175.076 91.668ZM172.934 87.552H176.574C176.574 86.8613 176.425 86.3387 176.126 85.984C175.837 85.62 175.426 85.438 174.894 85.438C174.418 85.438 173.989 85.6247 173.606 85.998C173.233 86.362 173.009 86.88 172.934 87.552ZM179.263 91.5V84.696H180.215L180.313 85.676H180.355C180.654 85.3493 180.981 85.0787 181.335 84.864C181.69 84.64 182.068 84.528 182.469 84.528C182.992 84.528 183.398 84.6447 183.687 84.878C183.986 85.102 184.205 85.4193 184.345 85.83C184.7 85.4473 185.059 85.1347 185.423 84.892C185.787 84.6493 186.175 84.528 186.585 84.528C187.285 84.528 187.803 84.7567 188.139 85.214C188.485 85.662 188.657 86.32 188.657 87.188V91.5H187.509V87.342C187.509 86.7073 187.407 86.2453 187.201 85.956C186.996 85.6667 186.679 85.522 186.249 85.522C185.745 85.522 185.176 85.872 184.541 86.572V91.5H183.393V87.342C183.393 86.7073 183.291 86.2453 183.085 85.956C182.88 85.6667 182.558 85.522 182.119 85.522C181.615 85.522 181.046 85.872 180.411 86.572V91.5H179.263ZM192.649 91.668C192.163 91.668 191.701 91.5793 191.263 91.402C190.824 91.2153 190.441 90.9913 190.115 90.73L190.689 89.96C190.987 90.1933 191.295 90.3893 191.613 90.548C191.93 90.6973 192.289 90.772 192.691 90.772C193.139 90.772 193.475 90.6693 193.699 90.464C193.923 90.2493 194.035 89.9973 194.035 89.708C194.035 89.4747 193.955 89.2787 193.797 89.12C193.647 88.9613 193.451 88.8307 193.209 88.728C192.975 88.616 192.733 88.5133 192.481 88.42C192.163 88.2987 191.851 88.1633 191.543 88.014C191.235 87.8553 190.983 87.6547 190.787 87.412C190.591 87.16 190.493 86.8427 190.493 86.46C190.493 85.9093 190.698 85.452 191.109 85.088C191.529 84.7147 192.107 84.528 192.845 84.528C193.265 84.528 193.657 84.6027 194.021 84.752C194.385 84.9013 194.697 85.0833 194.959 85.298L194.399 86.026C194.165 85.8487 193.923 85.704 193.671 85.592C193.419 85.48 193.143 85.424 192.845 85.424C192.415 85.424 192.098 85.522 191.893 85.718C191.697 85.914 191.599 86.1427 191.599 86.404C191.599 86.6187 191.669 86.796 191.809 86.936C191.949 87.0667 192.131 87.1833 192.355 87.286C192.579 87.3793 192.817 87.4773 193.069 87.58C193.395 87.7013 193.717 87.8413 194.035 88C194.352 88.1493 194.613 88.3547 194.819 88.616C195.033 88.868 195.141 89.2087 195.141 89.638C195.141 90.002 195.043 90.338 194.847 90.646C194.66 90.954 194.38 91.2013 194.007 91.388C193.643 91.5747 193.19 91.668 192.649 91.668Z" fill="#1E2229"/>
<path d="M19.288 120.144C18.76 120.144 18.248 120.044 17.752 119.844C17.264 119.644 16.832 119.36 16.456 118.992L17.272 118.044C17.552 118.308 17.872 118.524 18.232 118.692C18.592 118.852 18.952 118.932 19.312 118.932C19.76 118.932 20.1 118.84 20.332 118.656C20.564 118.472 20.68 118.228 20.68 117.924C20.68 117.596 20.564 117.36 20.332 117.216C20.108 117.072 19.82 116.924 19.468 116.772L18.388 116.304C18.132 116.192 17.88 116.048 17.632 115.872C17.392 115.696 17.192 115.472 17.032 115.2C16.88 114.928 16.804 114.6 16.804 114.216C16.804 113.8 16.916 113.428 17.14 113.1C17.372 112.764 17.684 112.5 18.076 112.308C18.476 112.108 18.932 112.008 19.444 112.008C19.9 112.008 20.34 112.1 20.764 112.284C21.188 112.46 21.552 112.7 21.856 113.004L21.148 113.892C20.9 113.684 20.636 113.52 20.356 113.4C20.084 113.28 19.78 113.22 19.444 113.22C19.076 113.22 18.776 113.304 18.544 113.472C18.32 113.632 18.208 113.856 18.208 114.144C18.208 114.344 18.264 114.512 18.376 114.648C18.496 114.776 18.652 114.888 18.844 114.984C19.036 115.072 19.24 115.16 19.456 115.248L20.524 115.692C20.988 115.892 21.368 116.156 21.664 116.484C21.96 116.804 22.108 117.248 22.108 117.816C22.108 118.24 21.996 118.628 21.772 118.98C21.548 119.332 21.224 119.616 20.8 119.832C20.384 120.04 19.88 120.144 19.288 120.144ZM23.4991 120V112.152H24.8911V115.716H24.9271L27.7231 112.152H29.2711L26.8591 115.212L29.6791 120H28.1431L26.0191 116.304L24.8911 117.708V120H23.4991ZM30.6232 120V112.152H32.0152V120H30.6232ZM33.9739 120V112.152H35.3659V118.824H38.6299V120H33.9739ZM39.9614 120V112.152H41.3534V118.824H44.6174V120H39.9614ZM48.3152 120V112.152H50.4152C51.6152 112.152 52.5512 112.476 53.2232 113.124C53.8952 113.772 54.2312 114.744 54.2312 116.04C54.2312 117.344 53.8992 118.332 53.2352 119.004C52.5712 119.668 51.6552 120 50.4872 120H48.3152ZM49.7072 118.872H50.3192C51.1112 118.872 51.7232 118.644 52.1552 118.188C52.5872 117.724 52.8032 117.008 52.8032 116.04C52.8032 115.08 52.5872 114.38 52.1552 113.94C51.7232 113.5 51.1112 113.28 50.3192 113.28H49.7072V118.872ZM55.7792 120V112.152H60.5072V113.328H57.1712V115.332H59.9912V116.508H57.1712V118.824H60.6272V120H55.7792ZM63.6042 120L61.1562 112.152H62.6322L63.7362 116.1C63.8642 116.54 63.9802 116.964 64.0842 117.372C64.1882 117.78 64.3042 118.208 64.4322 118.656H64.4802C64.6162 118.208 64.7322 117.78 64.8282 117.372C64.9322 116.964 65.0442 116.54 65.1642 116.1L66.2562 112.152H67.6842L65.2482 120H63.6042ZM68.5978 120V112.152H73.3258V113.328H69.9898V115.332H72.8098V116.508H69.9898V118.824H73.4458V120H68.5978ZM75.0188 120V112.152H76.4108V118.824H79.6748V120H75.0188ZM83.6793 120.144C82.9993 120.144 82.3993 119.98 81.8793 119.652C81.3593 119.316 80.9513 118.844 80.6553 118.236C80.3673 117.62 80.2233 116.888 80.2233 116.04C80.2233 115.192 80.3673 114.468 80.6553 113.868C80.9513 113.268 81.3593 112.808 81.8793 112.488C82.3993 112.168 82.9993 112.008 83.6793 112.008C84.3673 112.008 84.9713 112.168 85.4913 112.488C86.0113 112.808 86.4153 113.268 86.7033 113.868C86.9993 114.468 87.1473 115.192 87.1473 116.04C87.1473 116.888 86.9993 117.62 86.7033 118.236C86.4153 118.844 86.0113 119.316 85.4913 119.652C84.9713 119.98 84.3673 120.144 83.6793 120.144ZM83.6793 118.932C84.2953 118.932 84.7873 118.672 85.1553 118.152C85.5233 117.624 85.7073 116.92 85.7073 116.04C85.7073 115.16 85.5233 114.472 85.1553 113.976C84.7873 113.472 84.2953 113.22 83.6793 113.22C83.0633 113.22 82.5713 113.472 82.2033 113.976C81.8353 114.472 81.6513 115.16 81.6513 116.04C81.6513 116.92 81.8353 117.624 82.2033 118.152C82.5713 118.672 83.0633 118.932 83.6793 118.932ZM88.6812 120V112.152H91.1532C91.7372 112.152 92.2572 112.228 92.7132 112.38C93.1692 112.532 93.5292 112.784 93.7932 113.136C94.0572 113.488 94.1892 113.968 94.1892 114.576C94.1892 115.152 94.0572 115.628 93.7932 116.004C93.5292 116.38 93.1732 116.66 92.7252 116.844C92.2772 117.028 91.7692 117.12 91.2012 117.12H90.0732V120H88.6812ZM90.0732 116.004H91.0932C92.2452 116.004 92.8212 115.528 92.8212 114.576C92.8212 114.08 92.6692 113.74 92.3652 113.556C92.0692 113.364 91.6292 113.268 91.0452 113.268H90.0732V116.004ZM95.6296 120V112.152H100.358V113.328H97.0216V115.332H99.8416V116.508H97.0216V118.824H100.478V120H95.6296ZM102.051 120V112.152H104.151C105.351 112.152 106.287 112.476 106.959 113.124C107.631 113.772 107.967 114.744 107.967 116.04C107.967 117.344 107.635 118.332 106.971 119.004C106.307 119.668 105.391 120 104.223 120H102.051ZM103.443 118.872H104.055C104.847 118.872 105.459 118.644 105.891 118.188C106.323 117.724 106.539 117.008 106.539 116.04C106.539 115.08 106.323 114.38 105.891 113.94C105.459 113.5 104.847 113.28 104.055 113.28H103.443V118.872Z" fill="#0F1114"/>
<path d="M287.948 120V119.184H289.7V113.544H288.308V112.908C288.652 112.844 288.956 112.768 289.22 112.68C289.484 112.584 289.72 112.472 289.928 112.344H290.684V119.184H292.268V120H287.948ZM293.085 121.92L296.289 111.48H297.009L293.805 121.92H293.085ZM299.968 120.144C299.56 120.144 299.2 120.096 298.888 120C298.576 119.896 298.304 119.764 298.072 119.604C297.84 119.444 297.636 119.276 297.46 119.1L297.94 118.452C298.172 118.676 298.44 118.88 298.744 119.064C299.048 119.24 299.424 119.328 299.872 119.328C300.184 119.328 300.464 119.256 300.712 119.112C300.968 118.968 301.172 118.768 301.324 118.512C301.476 118.248 301.552 117.936 301.552 117.576C301.552 117.048 301.404 116.636 301.108 116.34C300.812 116.044 300.416 115.896 299.92 115.896C299.664 115.896 299.44 115.936 299.248 116.016C299.056 116.096 298.844 116.212 298.612 116.364L298.084 116.028L298.336 112.344H302.164V113.196H299.2L298.996 115.464C299.18 115.368 299.364 115.292 299.548 115.236C299.732 115.18 299.94 115.152 300.172 115.152C300.612 115.152 301.012 115.236 301.372 115.404C301.732 115.572 302.016 115.836 302.224 116.196C302.44 116.548 302.548 117 302.548 117.552C302.548 118.104 302.424 118.576 302.176 118.968C301.936 119.352 301.62 119.644 301.228 119.844C300.836 120.044 300.416 120.144 299.968 120.144Z" fill="white"/>
<rect x="16" y="133" width="288" height="25" rx="4" fill="#DAE1ED"/>
<path d="M27.084 150.668C26.16 150.668 25.4227 150.267 24.872 149.464C24.3307 148.661 24.06 147.509 24.06 146.006C24.06 144.503 24.3307 143.365 24.872 142.59C25.4227 141.815 26.16 141.428 27.084 141.428C28.008 141.428 28.7407 141.815 29.282 142.59C29.8327 143.365 30.108 144.503 30.108 146.006C30.108 147.509 29.8327 148.661 29.282 149.464C28.7407 150.267 28.008 150.668 27.084 150.668ZM27.084 149.408C27.3733 149.408 27.63 149.301 27.854 149.086C28.078 148.862 28.2507 148.503 28.372 148.008C28.5027 147.513 28.568 146.846 28.568 146.006C28.568 145.166 28.5027 144.503 28.372 144.018C28.2507 143.533 28.078 143.192 27.854 142.996C27.63 142.791 27.3733 142.688 27.084 142.688C26.804 142.688 26.552 142.791 26.328 142.996C26.104 143.192 25.9267 143.533 25.796 144.018C25.6653 144.503 25.6 145.166 25.6 146.006C25.6 146.846 25.6653 147.513 25.796 148.008C25.9267 148.503 26.104 148.862 26.328 149.086C26.552 149.301 26.804 149.408 27.084 149.408ZM30.8457 152.74L34.1077 140.56H35.1997L31.9377 152.74H30.8457ZM38.8642 150.668C38.1456 150.668 37.5389 150.547 37.0442 150.304C36.5589 150.052 36.1529 149.763 35.8262 149.436L36.5682 148.4C36.8389 148.652 37.1422 148.876 37.4782 149.072C37.8142 149.259 38.2062 149.352 38.6542 149.352C39.1489 149.352 39.5596 149.203 39.8862 148.904C40.2129 148.605 40.3762 148.185 40.3762 147.644C40.3762 147.112 40.2269 146.701 39.9282 146.412C39.6296 146.123 39.2329 145.978 38.7382 145.978C38.4489 145.978 38.2062 146.02 38.0102 146.104C37.8142 146.179 37.5809 146.305 37.3102 146.482L36.5402 145.992L36.8062 141.596H41.5662V142.954H38.2062L38.0242 145.11C38.2109 145.017 38.3929 144.947 38.5702 144.9C38.7569 144.844 38.9669 144.816 39.2002 144.816C39.7136 144.816 40.1802 144.914 40.6002 145.11C41.0202 145.306 41.3562 145.609 41.6082 146.02C41.8696 146.431 42.0002 146.958 42.0002 147.602C42.0002 148.246 41.8509 148.797 41.5522 149.254C41.2629 149.711 40.8802 150.061 40.4042 150.304C39.9282 150.547 39.4149 150.668 38.8642 150.668ZM42.85 150.5L45.454 145.782L43.018 141.344H44.824L45.832 143.374C45.944 143.579 46.0513 143.799 46.154 144.032C46.266 144.256 46.392 144.503 46.532 144.774H46.588C46.7 144.503 46.8026 144.256 46.896 144.032C46.9986 143.799 47.1013 143.579 47.204 143.374L48.17 141.344H49.892L47.456 145.852L50.06 150.5H48.254L47.134 148.344C47.0126 148.101 46.8913 147.863 46.77 147.63C46.658 147.387 46.532 147.126 46.392 146.846H46.336C46.2146 147.126 46.098 147.387 45.986 147.63C45.8833 147.863 45.776 148.101 45.664 148.344L44.572 150.5H42.85ZM51.4042 150.5V141.344H54.2882C54.9695 141.344 55.5762 141.433 56.1082 141.61C56.6402 141.787 57.0602 142.081 57.3682 142.492C57.6762 142.903 57.8302 143.463 57.8302 144.172C57.8302 144.844 57.6762 145.399 57.3682 145.838C57.0602 146.277 56.6449 146.603 56.1222 146.818C55.5995 147.033 55.0069 147.14 54.3442 147.14H53.0282V150.5H51.4042ZM53.0282 145.838H54.2182C55.5622 145.838 56.2342 145.283 56.2342 144.172C56.2342 143.593 56.0569 143.197 55.7022 142.982C55.3569 142.758 54.8435 142.646 54.1622 142.646H53.0282V145.838ZM66.1241 148.498C65.7041 148.498 65.3354 148.344 65.0181 148.036C64.7101 147.728 64.5561 147.322 64.5561 146.818C64.5561 146.314 64.7101 145.908 65.0181 145.6C65.3354 145.283 65.7041 145.124 66.1241 145.124C66.5441 145.124 66.9081 145.283 67.2161 145.6C67.5334 145.908 67.6921 146.314 67.6921 146.818C67.6921 147.322 67.5334 147.728 67.2161 148.036C66.9081 148.344 66.5441 148.498 66.1241 148.498ZM76.7935 150.5L73.8535 141.316H75.0995L76.5695 146.272C76.7375 146.813 76.8822 147.322 77.0035 147.798C77.1342 148.265 77.2882 148.769 77.4655 149.31H77.5215C77.6895 148.769 77.8388 148.265 77.9695 147.798C78.1002 147.322 78.2448 146.813 78.4035 146.272L79.8735 141.316H81.0635L78.1515 150.5H76.7935ZM82.2066 150.5V143.696H83.3546V150.5H82.2066ZM82.7946 142.296C82.5706 142.296 82.3839 142.231 82.2346 142.1C82.0946 141.96 82.0246 141.773 82.0246 141.54C82.0246 141.316 82.0946 141.134 82.2346 140.994C82.3839 140.854 82.5706 140.784 82.7946 140.784C83.0186 140.784 83.2006 140.854 83.3406 140.994C83.4899 141.134 83.5646 141.316 83.5646 141.54C83.5646 141.773 83.4899 141.96 83.3406 142.1C83.2006 142.231 83.0186 142.296 82.7946 142.296ZM87.4299 150.668C86.9446 150.668 86.4826 150.579 86.0439 150.402C85.6052 150.215 85.2226 149.991 84.8959 149.73L85.4699 148.96C85.7686 149.193 86.0766 149.389 86.3939 149.548C86.7112 149.697 87.0706 149.772 87.4719 149.772C87.9199 149.772 88.2559 149.669 88.4799 149.464C88.7039 149.249 88.8159 148.997 88.8159 148.708C88.8159 148.475 88.7366 148.279 88.5779 148.12C88.4286 147.961 88.2326 147.831 87.9899 147.728C87.7566 147.616 87.5139 147.513 87.2619 147.42C86.9446 147.299 86.6319 147.163 86.3239 147.014C86.0159 146.855 85.7639 146.655 85.5679 146.412C85.3719 146.16 85.2739 145.843 85.2739 145.46C85.2739 144.909 85.4792 144.452 85.8899 144.088C86.3099 143.715 86.8886 143.528 87.6259 143.528C88.0459 143.528 88.4379 143.603 88.8019 143.752C89.1659 143.901 89.4786 144.083 89.7399 144.298L89.1799 145.026C88.9466 144.849 88.7039 144.704 88.4519 144.592C88.1999 144.48 87.9246 144.424 87.6259 144.424C87.1966 144.424 86.8792 144.522 86.6739 144.718C86.4779 144.914 86.3799 145.143 86.3799 145.404C86.3799 145.619 86.4499 145.796 86.5899 145.936C86.7299 146.067 86.9119 146.183 87.1359 146.286C87.3599 146.379 87.5979 146.477 87.8499 146.58C88.1766 146.701 88.4986 146.841 88.8159 147C89.1332 147.149 89.3946 147.355 89.5999 147.616C89.8146 147.868 89.9219 148.209 89.9219 148.638C89.9219 149.002 89.8239 149.338 89.6279 149.646C89.4412 149.954 89.1612 150.201 88.7879 150.388C88.4239 150.575 87.9712 150.668 87.4299 150.668ZM93.5051 150.668C92.7865 150.668 92.2591 150.444 91.9231 149.996C91.5871 149.539 91.4191 148.876 91.4191 148.008V143.696H92.5811V147.854C92.5811 148.489 92.6791 148.951 92.8751 149.24C93.0805 149.529 93.4071 149.674 93.8551 149.674C94.2098 149.674 94.5225 149.585 94.7931 149.408C95.0731 149.221 95.3718 148.927 95.6891 148.526V143.696H96.8371V150.5H95.8851L95.7871 149.436H95.7451C95.4278 149.809 95.0918 150.108 94.7371 150.332C94.3825 150.556 93.9718 150.668 93.5051 150.668ZM100.7 150.668C100.131 150.668 99.655 150.5 99.2724 150.164C98.899 149.819 98.7124 149.343 98.7124 148.736C98.7124 147.989 99.0437 147.42 99.7064 147.028C100.378 146.627 101.438 146.347 102.884 146.188C102.884 145.899 102.842 145.623 102.758 145.362C102.684 145.101 102.544 144.891 102.338 144.732C102.142 144.564 101.858 144.48 101.484 144.48C101.092 144.48 100.724 144.555 100.378 144.704C100.033 144.853 99.725 145.021 99.4544 145.208L99.0064 144.41C99.3237 144.205 99.711 144.009 100.168 143.822C100.635 143.626 101.139 143.528 101.68 143.528C102.511 143.528 103.113 143.785 103.486 144.298C103.86 144.802 104.046 145.479 104.046 146.328V150.5H103.094L102.996 149.688H102.954C102.637 149.949 102.287 150.178 101.904 150.374C101.531 150.57 101.13 150.668 100.7 150.668ZM101.036 149.744C101.363 149.744 101.671 149.665 101.96 149.506C102.25 149.347 102.558 149.123 102.884 148.834V146.944C101.755 147.084 100.962 147.294 100.504 147.574C100.056 147.854 99.8324 148.213 99.8324 148.652C99.8324 149.035 99.949 149.315 100.182 149.492C100.416 149.66 100.7 149.744 101.036 149.744ZM107.405 150.668C106.976 150.668 106.663 150.537 106.467 150.276C106.28 150.005 106.187 149.623 106.187 149.128V140.532H107.335V149.212C107.335 149.389 107.368 149.52 107.433 149.604C107.498 149.679 107.573 149.716 107.657 149.716C107.694 149.716 107.727 149.716 107.755 149.716C107.792 149.707 107.844 149.697 107.909 149.688L108.063 150.556C107.988 150.593 107.9 150.621 107.797 150.64C107.694 150.659 107.564 150.668 107.405 150.668ZM109.755 150.5V143.696H110.903V150.5H109.755ZM110.343 142.296C110.119 142.296 109.933 142.231 109.783 142.1C109.643 141.96 109.573 141.773 109.573 141.54C109.573 141.316 109.643 141.134 109.783 140.994C109.933 140.854 110.119 140.784 110.343 140.784C110.567 140.784 110.749 140.854 110.889 140.994C111.039 141.134 111.113 141.316 111.113 141.54C111.113 141.773 111.039 141.96 110.889 142.1C110.749 142.231 110.567 142.296 110.343 142.296ZM112.487 150.5V149.884L116.071 144.634H112.879V143.696H117.527V144.312L113.943 149.562H117.639V150.5H112.487ZM119.148 150.5V143.696H120.296V150.5H119.148ZM119.736 142.296C119.512 142.296 119.325 142.231 119.176 142.1C119.036 141.96 118.966 141.773 118.966 141.54C118.966 141.316 119.036 141.134 119.176 140.994C119.325 140.854 119.512 140.784 119.736 140.784C119.96 140.784 120.142 140.854 120.282 140.994C120.431 141.134 120.506 141.316 120.506 141.54C120.506 141.773 120.431 141.96 120.282 142.1C120.142 142.231 119.96 142.296 119.736 142.296ZM122.593 150.5V143.696H123.545L123.643 144.676H123.685C124.012 144.349 124.357 144.079 124.721 143.864C125.085 143.64 125.501 143.528 125.967 143.528C126.686 143.528 127.209 143.757 127.535 144.214C127.871 144.662 128.039 145.32 128.039 146.188V150.5H126.891V146.342C126.891 145.707 126.789 145.245 126.583 144.956C126.378 144.667 126.051 144.522 125.603 144.522C125.258 144.522 124.945 144.611 124.665 144.788C124.395 144.965 124.087 145.227 123.741 145.572V150.5H122.593ZM132.546 153.636C131.715 153.636 131.038 153.477 130.516 153.16C129.993 152.843 129.732 152.39 129.732 151.802C129.732 151.513 129.82 151.233 129.998 150.962C130.175 150.701 130.418 150.467 130.726 150.262V150.206C130.558 150.103 130.413 149.959 130.292 149.772C130.18 149.585 130.124 149.361 130.124 149.1C130.124 148.811 130.203 148.559 130.362 148.344C130.52 148.129 130.688 147.961 130.866 147.84V147.784C130.642 147.597 130.436 147.345 130.25 147.028C130.072 146.711 129.984 146.351 129.984 145.95C129.984 145.455 130.1 145.026 130.334 144.662C130.567 144.298 130.88 144.018 131.272 143.822C131.664 143.626 132.088 143.528 132.546 143.528C132.732 143.528 132.91 143.547 133.078 143.584C133.246 143.612 133.39 143.649 133.512 143.696H135.878V144.578H134.478C134.636 144.727 134.767 144.928 134.87 145.18C134.982 145.423 135.038 145.689 135.038 145.978C135.038 146.463 134.926 146.883 134.702 147.238C134.478 147.593 134.179 147.868 133.806 148.064C133.432 148.251 133.012 148.344 132.546 148.344C132.182 148.344 131.841 148.265 131.524 148.106C131.402 148.209 131.3 148.325 131.216 148.456C131.132 148.577 131.09 148.731 131.09 148.918C131.09 149.133 131.174 149.31 131.342 149.45C131.519 149.59 131.836 149.66 132.294 149.66H133.61C134.403 149.66 134.996 149.791 135.388 150.052C135.789 150.304 135.99 150.715 135.99 151.284C135.99 151.704 135.85 152.091 135.57 152.446C135.29 152.801 134.893 153.085 134.38 153.3C133.866 153.524 133.255 153.636 132.546 153.636ZM132.546 147.574C132.938 147.574 133.274 147.429 133.554 147.14C133.843 146.841 133.988 146.445 133.988 145.95C133.988 145.455 133.848 145.068 133.568 144.788C133.288 144.508 132.947 144.368 132.546 144.368C132.144 144.368 131.804 144.508 131.524 144.788C131.244 145.068 131.104 145.455 131.104 145.95C131.104 146.445 131.244 146.841 131.524 147.14C131.813 147.429 132.154 147.574 132.546 147.574ZM132.714 152.838C133.367 152.838 133.89 152.693 134.282 152.404C134.674 152.124 134.87 151.807 134.87 151.452C134.87 151.135 134.748 150.915 134.506 150.794C134.272 150.673 133.936 150.612 133.498 150.612H132.322C132.191 150.612 132.046 150.603 131.888 150.584C131.738 150.565 131.589 150.537 131.44 150.5C131.197 150.677 131.02 150.864 130.908 151.06C130.796 151.256 130.74 151.452 130.74 151.648C130.74 152.012 130.912 152.301 131.258 152.516C131.612 152.731 132.098 152.838 132.714 152.838ZM141.675 150.668C141.106 150.668 140.63 150.5 140.247 150.164C139.874 149.819 139.687 149.343 139.687 148.736C139.687 147.989 140.018 147.42 140.681 147.028C141.353 146.627 142.412 146.347 143.859 146.188C143.859 145.899 143.817 145.623 143.733 145.362C143.658 145.101 143.518 144.891 143.313 144.732C143.117 144.564 142.832 144.48 142.459 144.48C142.067 144.48 141.698 144.555 141.353 144.704C141.008 144.853 140.7 145.021 140.429 145.208L139.981 144.41C140.298 144.205 140.686 144.009 141.143 143.822C141.61 143.626 142.114 143.528 142.655 143.528C143.486 143.528 144.088 143.785 144.461 144.298C144.834 144.802 145.021 145.479 145.021 146.328V150.5H144.069L143.971 149.688H143.929C143.612 149.949 143.262 150.178 142.879 150.374C142.506 150.57 142.104 150.668 141.675 150.668ZM142.011 149.744C142.338 149.744 142.646 149.665 142.935 149.506C143.224 149.347 143.532 149.123 143.859 148.834V146.944C142.73 147.084 141.936 147.294 141.479 147.574C141.031 147.854 140.807 148.213 140.807 148.652C140.807 149.035 140.924 149.315 141.157 149.492C141.39 149.66 141.675 149.744 142.011 149.744ZM147.162 150.5V143.696H148.114L148.212 144.676H148.254C148.58 144.349 148.926 144.079 149.29 143.864C149.654 143.64 150.069 143.528 150.536 143.528C151.254 143.528 151.777 143.757 152.104 144.214C152.44 144.662 152.608 145.32 152.608 146.188V150.5H151.46V146.342C151.46 145.707 151.357 145.245 151.152 144.956C150.946 144.667 150.62 144.522 150.172 144.522C149.826 144.522 149.514 144.611 149.234 144.788C148.963 144.965 148.655 145.227 148.31 145.572V150.5H147.162ZM157.142 150.668C156.293 150.668 155.611 150.36 155.098 149.744C154.585 149.119 154.328 148.241 154.328 147.112C154.328 146.375 154.463 145.74 154.734 145.208C155.014 144.667 155.378 144.251 155.826 143.962C156.283 143.673 156.769 143.528 157.282 143.528C157.674 143.528 158.015 143.598 158.304 143.738C158.593 143.878 158.887 144.069 159.186 144.312L159.13 143.15V140.532H160.292V150.5H159.34L159.242 149.702H159.2C158.939 149.963 158.631 150.192 158.276 150.388C157.921 150.575 157.543 150.668 157.142 150.668ZM157.394 149.702C157.991 149.702 158.57 149.389 159.13 148.764V145.208C158.841 144.947 158.561 144.765 158.29 144.662C158.029 144.55 157.758 144.494 157.478 144.494C157.114 144.494 156.783 144.606 156.484 144.83C156.195 145.045 155.961 145.348 155.784 145.74C155.607 146.123 155.518 146.575 155.518 147.098C155.518 147.91 155.681 148.549 156.008 149.016C156.335 149.473 156.797 149.702 157.394 149.702ZM165.386 150.5V143.696H166.338L166.436 144.928H166.478C166.712 144.499 166.996 144.158 167.332 143.906C167.668 143.654 168.028 143.528 168.41 143.528C168.681 143.528 168.924 143.575 169.138 143.668L168.914 144.676C168.802 144.639 168.7 144.611 168.606 144.592C168.513 144.573 168.396 144.564 168.256 144.564C167.967 144.564 167.664 144.681 167.346 144.914C167.038 145.147 166.768 145.553 166.534 146.132V150.5H165.386ZM172.861 150.668C172.254 150.668 171.704 150.528 171.209 150.248C170.714 149.959 170.322 149.548 170.033 149.016C169.744 148.484 169.599 147.849 169.599 147.112C169.599 146.365 169.744 145.726 170.033 145.194C170.332 144.662 170.714 144.251 171.181 143.962C171.648 143.673 172.138 143.528 172.651 143.528C173.519 143.528 174.186 143.817 174.653 144.396C175.129 144.975 175.367 145.749 175.367 146.72C175.367 146.841 175.362 146.963 175.353 147.084C175.353 147.196 175.344 147.294 175.325 147.378H170.733C170.78 148.097 171.004 148.671 171.405 149.1C171.816 149.529 172.348 149.744 173.001 149.744C173.328 149.744 173.626 149.697 173.897 149.604C174.177 149.501 174.443 149.371 174.695 149.212L175.101 149.968C174.812 150.155 174.48 150.318 174.107 150.458C173.743 150.598 173.328 150.668 172.861 150.668ZM170.719 146.552H174.359C174.359 145.861 174.21 145.339 173.911 144.984C173.622 144.62 173.211 144.438 172.679 144.438C172.203 144.438 171.774 144.625 171.391 144.998C171.018 145.362 170.794 145.88 170.719 146.552ZM177.048 153.37V143.696H178L178.098 144.48H178.14C178.448 144.219 178.784 143.995 179.148 143.808C179.522 143.621 179.909 143.528 180.31 143.528C181.188 143.528 181.855 143.845 182.312 144.48C182.77 145.105 182.998 145.945 182.998 147C182.998 147.765 182.858 148.423 182.578 148.974C182.308 149.525 181.948 149.945 181.5 150.234C181.062 150.523 180.581 150.668 180.058 150.668C179.741 150.668 179.424 150.598 179.106 150.458C178.798 150.318 178.486 150.127 178.168 149.884L178.196 151.074V153.37H177.048ZM179.862 149.702C180.422 149.702 180.884 149.464 181.248 148.988C181.622 148.503 181.808 147.84 181.808 147C181.808 146.253 181.668 145.651 181.388 145.194C181.118 144.727 180.66 144.494 180.016 144.494C179.727 144.494 179.433 144.573 179.134 144.732C178.845 144.891 178.532 145.119 178.196 145.418V148.988C178.504 149.249 178.803 149.436 179.092 149.548C179.382 149.651 179.638 149.702 179.862 149.702ZM187.46 150.668C186.909 150.668 186.391 150.528 185.906 150.248C185.43 149.968 185.043 149.562 184.744 149.03C184.455 148.498 184.31 147.859 184.31 147.112C184.31 146.347 184.455 145.698 184.744 145.166C185.043 144.634 185.43 144.228 185.906 143.948C186.391 143.668 186.909 143.528 187.46 143.528C188.02 143.528 188.538 143.668 189.014 143.948C189.49 144.228 189.873 144.634 190.162 145.166C190.461 145.698 190.61 146.347 190.61 147.112C190.61 147.859 190.461 148.498 190.162 149.03C189.873 149.562 189.49 149.968 189.014 150.248C188.538 150.528 188.02 150.668 187.46 150.668ZM187.46 149.716C188.048 149.716 188.519 149.478 188.874 149.002C189.238 148.517 189.42 147.887 189.42 147.112C189.42 146.328 189.238 145.693 188.874 145.208C188.519 144.723 188.048 144.48 187.46 144.48C186.881 144.48 186.41 144.723 186.046 145.208C185.682 145.693 185.5 146.328 185.5 147.112C185.5 147.887 185.682 148.517 186.046 149.002C186.41 149.478 186.881 149.716 187.46 149.716ZM192.402 150.5V143.696H193.354L193.452 144.928H193.494C193.727 144.499 194.012 144.158 194.348 143.906C194.684 143.654 195.043 143.528 195.426 143.528C195.697 143.528 195.939 143.575 196.154 143.668L195.93 144.676C195.818 144.639 195.715 144.611 195.622 144.592C195.529 144.573 195.412 144.564 195.272 144.564C194.983 144.564 194.679 144.681 194.362 144.914C194.054 145.147 193.783 145.553 193.55 146.132V150.5H192.402ZM199.397 150.668C198.669 150.668 198.161 150.458 197.871 150.038C197.591 149.618 197.451 149.072 197.451 148.4V144.634H196.443V143.766L197.507 143.696L197.647 141.792H198.613V143.696H200.447V144.634H198.613V148.414C198.613 148.834 198.688 149.161 198.837 149.394C198.996 149.618 199.271 149.73 199.663 149.73C199.785 149.73 199.915 149.711 200.055 149.674C200.195 149.627 200.321 149.585 200.433 149.548L200.657 150.416C200.471 150.481 200.265 150.537 200.041 150.584C199.827 150.64 199.612 150.668 199.397 150.668ZM201.986 150.5V143.696H203.134V150.5H201.986ZM202.574 142.296C202.35 142.296 202.163 142.231 202.014 142.1C201.874 141.96 201.804 141.773 201.804 141.54C201.804 141.316 201.874 141.134 202.014 140.994C202.163 140.854 202.35 140.784 202.574 140.784C202.798 140.784 202.98 140.854 203.12 140.994C203.269 141.134 203.344 141.316 203.344 141.54C203.344 141.773 203.269 141.96 203.12 142.1C202.98 142.231 202.798 142.296 202.574 142.296ZM205.431 150.5V143.696H206.383L206.481 144.676H206.523C206.85 144.349 207.195 144.079 207.559 143.864C207.923 143.64 208.339 143.528 208.805 143.528C209.524 143.528 210.047 143.757 210.373 144.214C210.709 144.662 210.877 145.32 210.877 146.188V150.5H209.729V146.342C209.729 145.707 209.627 145.245 209.421 144.956C209.216 144.667 208.889 144.522 208.441 144.522C208.096 144.522 207.783 144.611 207.503 144.788C207.233 144.965 206.925 145.227 206.579 145.572V150.5H205.431ZM215.383 153.636C214.553 153.636 213.876 153.477 213.353 153.16C212.831 152.843 212.569 152.39 212.569 151.802C212.569 151.513 212.658 151.233 212.835 150.962C213.013 150.701 213.255 150.467 213.563 150.262V150.206C213.395 150.103 213.251 149.959 213.129 149.772C213.017 149.585 212.961 149.361 212.961 149.1C212.961 148.811 213.041 148.559 213.199 148.344C213.358 148.129 213.526 147.961 213.703 147.84V147.784C213.479 147.597 213.274 147.345 213.087 147.028C212.91 146.711 212.821 146.351 212.821 145.95C212.821 145.455 212.938 145.026 213.171 144.662C213.405 144.298 213.717 144.018 214.109 143.822C214.501 143.626 214.926 143.528 215.383 143.528C215.57 143.528 215.747 143.547 215.915 143.584C216.083 143.612 216.228 143.649 216.349 143.696H218.715V144.578H217.315C217.474 144.727 217.605 144.928 217.707 145.18C217.819 145.423 217.875 145.689 217.875 145.978C217.875 146.463 217.763 146.883 217.539 147.238C217.315 147.593 217.017 147.868 216.643 148.064C216.27 148.251 215.85 148.344 215.383 148.344C215.019 148.344 214.679 148.265 214.361 148.106C214.24 148.209 214.137 148.325 214.053 148.456C213.969 148.577 213.927 148.731 213.927 148.918C213.927 149.133 214.011 149.31 214.179 149.45C214.357 149.59 214.674 149.66 215.131 149.66H216.447C217.241 149.66 217.833 149.791 218.225 150.052C218.627 150.304 218.827 150.715 218.827 151.284C218.827 151.704 218.687 152.091 218.407 152.446C218.127 152.801 217.731 153.085 217.217 153.3C216.704 153.524 216.093 153.636 215.383 153.636ZM215.383 147.574C215.775 147.574 216.111 147.429 216.391 147.14C216.681 146.841 216.825 146.445 216.825 145.95C216.825 145.455 216.685 145.068 216.405 144.788C216.125 144.508 215.785 144.368 215.383 144.368C214.982 144.368 214.641 144.508 214.361 144.788C214.081 145.068 213.941 145.455 213.941 145.95C213.941 146.445 214.081 146.841 214.361 147.14C214.651 147.429 214.991 147.574 215.383 147.574ZM215.551 152.838C216.205 152.838 216.727 152.693 217.119 152.404C217.511 152.124 217.707 151.807 217.707 151.452C217.707 151.135 217.586 150.915 217.343 150.794C217.11 150.673 216.774 150.612 216.335 150.612H215.159C215.029 150.612 214.884 150.603 214.725 150.584C214.576 150.565 214.427 150.537 214.277 150.5C214.035 150.677 213.857 150.864 213.745 151.06C213.633 151.256 213.577 151.452 213.577 151.648C213.577 152.012 213.75 152.301 214.095 152.516C214.45 152.731 214.935 152.838 215.551 152.838ZM225.633 150.668C225.036 150.668 224.494 150.528 224.009 150.248C223.524 149.968 223.141 149.562 222.861 149.03C222.581 148.498 222.441 147.859 222.441 147.112C222.441 146.347 222.59 145.698 222.889 145.166C223.197 144.634 223.598 144.228 224.093 143.948C224.597 143.668 225.138 143.528 225.717 143.528C226.165 143.528 226.548 143.607 226.865 143.766C227.192 143.925 227.472 144.111 227.705 144.326L227.117 145.082C226.921 144.905 226.711 144.76 226.487 144.648C226.272 144.536 226.03 144.48 225.759 144.48C225.348 144.48 224.98 144.592 224.653 144.816C224.336 145.031 224.084 145.339 223.897 145.74C223.72 146.132 223.631 146.589 223.631 147.112C223.631 147.887 223.822 148.517 224.205 149.002C224.597 149.478 225.106 149.716 225.731 149.716C226.048 149.716 226.342 149.651 226.613 149.52C226.884 149.38 227.122 149.217 227.327 149.03L227.831 149.8C227.523 150.071 227.182 150.285 226.809 150.444C226.436 150.593 226.044 150.668 225.633 150.668ZM230.548 150.668C230.118 150.668 229.806 150.537 229.61 150.276C229.423 150.005 229.33 149.623 229.33 149.128V140.532H230.478V149.212C230.478 149.389 230.51 149.52 230.576 149.604C230.641 149.679 230.716 149.716 230.8 149.716C230.837 149.716 230.87 149.716 230.898 149.716C230.935 149.707 230.986 149.697 231.052 149.688L231.206 150.556C231.131 150.593 231.042 150.621 230.94 150.64C230.837 150.659 230.706 150.668 230.548 150.668ZM235.656 150.668C235.049 150.668 234.499 150.528 234.004 150.248C233.509 149.959 233.117 149.548 232.828 149.016C232.539 148.484 232.394 147.849 232.394 147.112C232.394 146.365 232.539 145.726 232.828 145.194C233.127 144.662 233.509 144.251 233.976 143.962C234.443 143.673 234.933 143.528 235.446 143.528C236.314 143.528 236.981 143.817 237.448 144.396C237.924 144.975 238.162 145.749 238.162 146.72C238.162 146.841 238.157 146.963 238.148 147.084C238.148 147.196 238.139 147.294 238.12 147.378H233.528C233.575 148.097 233.799 148.671 234.2 149.1C234.611 149.529 235.143 149.744 235.796 149.744C236.123 149.744 236.421 149.697 236.692 149.604C236.972 149.501 237.238 149.371 237.49 149.212L237.896 149.968C237.607 150.155 237.275 150.318 236.902 150.458C236.538 150.598 236.123 150.668 235.656 150.668ZM233.514 146.552H237.154C237.154 145.861 237.005 145.339 236.706 144.984C236.417 144.62 236.006 144.438 235.474 144.438C234.998 144.438 234.569 144.625 234.186 144.998C233.813 145.362 233.589 145.88 233.514 146.552ZM241.22 150.668C240.651 150.668 240.175 150.5 239.792 150.164C239.419 149.819 239.232 149.343 239.232 148.736C239.232 147.989 239.563 147.42 240.226 147.028C240.898 146.627 241.957 146.347 243.404 146.188C243.404 145.899 243.362 145.623 243.278 145.362C243.203 145.101 243.063 144.891 242.858 144.732C242.662 144.564 242.377 144.48 242.004 144.48C241.612 144.48 241.243 144.555 240.898 144.704C240.553 144.853 240.245 145.021 239.974 145.208L239.526 144.41C239.843 144.205 240.231 144.009 240.688 143.822C241.155 143.626 241.659 143.528 242.2 143.528C243.031 143.528 243.633 143.785 244.006 144.298C244.379 144.802 244.566 145.479 244.566 146.328V150.5H243.614L243.516 149.688H243.474C243.157 149.949 242.807 150.178 242.424 150.374C242.051 150.57 241.649 150.668 241.22 150.668ZM241.556 149.744C241.883 149.744 242.191 149.665 242.48 149.506C242.769 149.347 243.077 149.123 243.404 148.834V146.944C242.275 147.084 241.481 147.294 241.024 147.574C240.576 147.854 240.352 148.213 240.352 148.652C240.352 149.035 240.469 149.315 240.702 149.492C240.935 149.66 241.22 149.744 241.556 149.744ZM246.707 150.5V143.696H247.659L247.757 144.676H247.799C248.125 144.349 248.471 144.079 248.835 143.864C249.199 143.64 249.614 143.528 250.081 143.528C250.799 143.528 251.322 143.757 251.649 144.214C251.985 144.662 252.153 145.32 252.153 146.188V150.5H251.005V146.342C251.005 145.707 250.902 145.245 250.697 144.956C250.491 144.667 250.165 144.522 249.717 144.522C249.371 144.522 249.059 144.611 248.779 144.788C248.508 144.965 248.2 145.227 247.855 145.572V150.5H246.707ZM259.49 150.668C258.64 150.668 257.959 150.36 257.446 149.744C256.932 149.119 256.676 148.241 256.676 147.112C256.676 146.375 256.811 145.74 257.082 145.208C257.362 144.667 257.726 144.251 258.174 143.962C258.631 143.673 259.116 143.528 259.63 143.528C260.022 143.528 260.362 143.598 260.652 143.738C260.941 143.878 261.235 144.069 261.534 144.312L261.478 143.15V140.532H262.64V150.5H261.688L261.59 149.702H261.548C261.286 149.963 260.978 150.192 260.624 150.388C260.269 150.575 259.891 150.668 259.49 150.668ZM259.742 149.702C260.339 149.702 260.918 149.389 261.478 148.764V145.208C261.188 144.947 260.908 144.765 260.638 144.662C260.376 144.55 260.106 144.494 259.826 144.494C259.462 144.494 259.13 144.606 258.832 144.83C258.542 145.045 258.309 145.348 258.132 145.74C257.954 146.123 257.866 146.575 257.866 147.098C257.866 147.91 258.029 148.549 258.356 149.016C258.682 149.473 259.144 149.702 259.742 149.702ZM266.499 150.668C265.93 150.668 265.454 150.5 265.071 150.164C264.698 149.819 264.511 149.343 264.511 148.736C264.511 147.989 264.843 147.42 265.505 147.028C266.177 146.627 267.237 146.347 268.683 146.188C268.683 145.899 268.641 145.623 268.557 145.362C268.483 145.101 268.343 144.891 268.137 144.732C267.941 144.564 267.657 144.48 267.283 144.48C266.891 144.48 266.523 144.555 266.177 144.704C265.832 144.853 265.524 145.021 265.253 145.208L264.805 144.41C265.123 144.205 265.51 144.009 265.967 143.822C266.434 143.626 266.938 143.528 267.479 143.528C268.31 143.528 268.912 143.785 269.285 144.298C269.659 144.802 269.845 145.479 269.845 146.328V150.5H268.893L268.795 149.688H268.753C268.436 149.949 268.086 150.178 267.703 150.374C267.33 150.57 266.929 150.668 266.499 150.668ZM266.835 149.744C267.162 149.744 267.47 149.665 267.759 149.506C268.049 149.347 268.357 149.123 268.683 148.834V146.944C267.554 147.084 266.761 147.294 266.303 147.574C265.855 147.854 265.631 148.213 265.631 148.652C265.631 149.035 265.748 149.315 265.981 149.492C266.215 149.66 266.499 149.744 266.835 149.744ZM273.936 150.668C273.208 150.668 272.7 150.458 272.41 150.038C272.13 149.618 271.99 149.072 271.99 148.4V144.634H270.982V143.766L272.046 143.696L272.186 141.792H273.152V143.696H274.986V144.634H273.152V148.414C273.152 148.834 273.227 149.161 273.376 149.394C273.535 149.618 273.81 149.73 274.202 149.73C274.324 149.73 274.454 149.711 274.594 149.674C274.734 149.627 274.86 149.585 274.972 149.548L275.196 150.416C275.01 150.481 274.804 150.537 274.58 150.584C274.366 150.64 274.151 150.668 273.936 150.668ZM277.792 150.668C277.223 150.668 276.747 150.5 276.364 150.164C275.991 149.819 275.804 149.343 275.804 148.736C275.804 147.989 276.136 147.42 276.798 147.028C277.47 146.627 278.53 146.347 279.976 146.188C279.976 145.899 279.934 145.623 279.85 145.362C279.776 145.101 279.636 144.891 279.43 144.732C279.234 144.564 278.95 144.48 278.576 144.48C278.184 144.48 277.816 144.555 277.47 144.704C277.125 144.853 276.817 145.021 276.546 145.208L276.098 144.41C276.416 144.205 276.803 144.009 277.26 143.822C277.727 143.626 278.231 143.528 278.772 143.528C279.603 143.528 280.205 143.785 280.578 144.298C280.952 144.802 281.138 145.479 281.138 146.328V150.5H280.186L280.088 149.688H280.046C279.729 149.949 279.379 150.178 278.996 150.374C278.623 150.57 278.222 150.668 277.792 150.668ZM278.128 149.744C278.455 149.744 278.763 149.665 279.052 149.506C279.342 149.347 279.65 149.123 279.976 148.834V146.944C278.847 147.084 278.054 147.294 277.596 147.574C277.148 147.854 276.924 148.213 276.924 148.652C276.924 149.035 277.041 149.315 277.274 149.492C277.508 149.66 277.792 149.744 278.128 149.744Z" fill="#1E2229"/>
</g>
<defs>
<filter id="filter0_d_2_831" x="0" y="0" width="320" height="178" filterUnits="userSpaceOnUse" color-interpolation-filters="sRGB">
<feFlood flood-opacity="0" result="BackgroundImageFix"/>
<feColorMatrix in="SourceAlpha" type="matrix" values="0 0 0 0 0 0 0 0 0 0 0 0 0 0 0 0 0 0 127 0" result="hardAlpha"/>
<feOffset dy="4"/>
<feGaussianBlur stdDeviation="2"/>
<feComposite in2="hardAlpha" operator="out"/>
<feColorMatrix type="matrix" values="0 0 0 0 0 0 0 0 0 0 0 0 0 0 0 0 0 0 0.25 0"/>
<feBlend mode="normal" in2="BackgroundImageFix" result="effect1_dropShadow_2_831"/>
<feBlend mode="normal" in="SourceGraphic" in2="effect1_dropShadow_2_831" result="shape"/>
</filter>
</defs>
</svg>
