<svg width="56" height="392" viewBox="0 0 56 392" fill="none" xmlns="http://www.w3.org/2000/svg">
<g filter="url(#filter0_i_2_524)">
<rect width="56" height="392" rx="28" fill="white"/>
</g>
<rect x="0.5" y="0.5" width="55" height="391" rx="27.5" stroke="#C1CAD9"/>
<path d="M27.9859 45C37.367 45 44.972 37.3889 44.972 28C44.972 18.6112 37.367 11 27.9859 11C18.6048 11 11 18.6112 11 28C11 37.3889 18.6048 45 27.9859 45Z" fill="#FFC936"/>
<path d="M27.9785 32.8986C30.6815 32.8986 32.8728 30.7056 32.8728 28.0003C32.8728 25.2951 30.6815 23.102 27.9785 23.102C25.2755 23.102 23.0842 25.2951 23.0842 28.0003C23.0842 30.7056 25.2755 32.8986 27.9785 32.8986Z" fill="white"/>
<circle cx="28" cy="112" r="16.5" stroke="#C1CAD9"/>
<path d="M25.0805 117V116.314C25.9765 115.418 26.7372 114.634 27.3625 113.962C27.9878 113.281 28.4638 112.669 28.7905 112.128C29.1172 111.577 29.2805 111.064 29.2805 110.588C29.2805 110.075 29.1405 109.655 28.8605 109.328C28.5805 109.001 28.1558 108.838 27.5865 108.838C27.2132 108.838 26.8678 108.945 26.5505 109.16C26.2332 109.365 25.9438 109.617 25.6825 109.916L25.0245 109.258C25.3978 108.847 25.7945 108.521 26.2145 108.278C26.6438 108.026 27.1478 107.9 27.7265 107.9C28.5572 107.9 29.2105 108.143 29.6865 108.628C30.1625 109.104 30.4005 109.739 30.4005 110.532C30.4005 111.092 30.2418 111.661 29.9245 112.24C29.6165 112.809 29.1872 113.411 28.6365 114.046C28.0952 114.671 27.4698 115.353 26.7605 116.09C27.0032 116.071 27.2552 116.053 27.5165 116.034C27.7778 116.015 28.0252 116.006 28.2585 116.006H30.8485V117H25.0805Z" fill="#C1CAD9"/>
<circle cx="28" cy="196" r="16.5" stroke="#C1CAD9"/>
<path d="M27.8245 201.168C27.1152 201.168 26.5225 201.042 26.0465 200.79C25.5705 200.529 25.1832 200.235 24.8845 199.908L25.4725 199.152C25.7432 199.432 26.0605 199.679 26.4245 199.894C26.7885 200.109 27.2318 200.216 27.7545 200.216C28.2958 200.216 28.7392 200.067 29.0845 199.768C29.4298 199.469 29.6025 199.073 29.6025 198.578C29.6025 198.223 29.5092 197.915 29.3225 197.654C29.1452 197.383 28.8465 197.173 28.4265 197.024C28.0158 196.875 27.4558 196.8 26.7465 196.8V195.918C27.3812 195.918 27.8805 195.843 28.2445 195.694C28.6178 195.545 28.8838 195.344 29.0425 195.092C29.2012 194.84 29.2805 194.56 29.2805 194.252C29.2805 193.813 29.1405 193.468 28.8605 193.216C28.5898 192.964 28.2165 192.838 27.7405 192.838C27.3672 192.838 27.0218 192.922 26.7045 193.09C26.3965 193.258 26.1072 193.477 25.8365 193.748L25.2205 193.02C25.5658 192.693 25.9485 192.427 26.3685 192.222C26.7885 192.007 27.2598 191.9 27.7825 191.9C28.5572 191.9 29.1965 192.101 29.7005 192.502C30.2045 192.894 30.4565 193.449 30.4565 194.168C30.4565 194.709 30.3072 195.153 30.0085 195.498C29.7098 195.843 29.3178 196.109 28.8325 196.296V196.352C29.3738 196.473 29.8312 196.73 30.2045 197.122C30.5778 197.505 30.7645 198.004 30.7645 198.62C30.7645 199.143 30.6338 199.595 30.3725 199.978C30.1112 200.361 29.7565 200.655 29.3085 200.86C28.8698 201.065 28.3752 201.168 27.8245 201.168Z" fill="#C1CAD9"/>
<circle cx="28" cy="280" r="16.5" stroke="#C1CAD9"/>
<path d="M25.9765 281.612H28.7765V279.022C28.7765 278.779 28.7858 278.49 28.8045 278.154C28.8232 277.818 28.8372 277.533 28.8465 277.3H28.7905C28.6785 277.515 28.5618 277.725 28.4405 277.93C28.3192 278.135 28.1932 278.345 28.0625 278.56L25.9765 281.612ZM28.7765 285V282.536H24.7585V281.78L28.5805 276.068H29.8685V281.612H31.0865V282.536H29.8685V285H28.7765Z" fill="#C1CAD9"/>
<circle cx="28" cy="364" r="16.5" stroke="#C1CAD9"/>
<path d="M27.7965 369.168C27.0872 369.168 26.4992 369.042 26.0325 368.79C25.5658 368.538 25.1785 368.258 24.8705 367.95L25.4305 367.194C25.7012 367.455 26.0138 367.693 26.3685 367.908C26.7232 368.113 27.1618 368.216 27.6845 368.216C28.2352 368.216 28.6972 368.034 29.0705 367.67C29.4532 367.297 29.6445 366.797 29.6445 366.172C29.6445 365.556 29.4718 365.075 29.1265 364.73C28.7812 364.385 28.3192 364.212 27.7405 364.212C27.4325 364.212 27.1665 364.259 26.9425 364.352C26.7278 364.445 26.4852 364.581 26.2145 364.758L25.5985 364.366L25.8925 360.068H30.3585V361.062H26.9005L26.6625 363.708C26.8772 363.596 27.0918 363.507 27.3065 363.442C27.5212 363.377 27.7638 363.344 28.0345 363.344C28.5478 363.344 29.0098 363.447 29.4205 363.652C29.8405 363.848 30.1765 364.151 30.4285 364.562C30.6805 364.973 30.8065 365.5 30.8065 366.144C30.8065 366.788 30.6618 367.339 30.3725 367.796C30.0925 368.244 29.7238 368.585 29.2665 368.818C28.8092 369.051 28.3192 369.168 27.7965 369.168Z" fill="#C1CAD9"/>
<defs>
<filter id="filter0_i_2_524" x="0" y="-4" width="56" height="396" filterUnits="userSpaceOnUse" color-interpolation-filters="sRGB">
<feFlood flood-opacity="0" result="BackgroundImageFix"/>
<feBlend mode="normal" in="SourceGraphic" in2="BackgroundImageFix" result="shape"/>
<feColorMatrix in="SourceAlpha" type="matrix" values="0 0 0 0 0 0 0 0 0 0 0 0 0 0 0 0 0 0 127 0" result="hardAlpha"/>
<feOffset dy="-4"/>
<feGaussianBlur stdDeviation="2"/>
<feComposite in2="hardAlpha" operator="arithmetic" k2="-1" k3="1"/>
<feColorMatrix type="matrix" values="0 0 0 0 0 0 0 0 0 0 0 0 0 0 0 0 0 0 0.25 0"/>
<feBlend mode="normal" in2="shape" result="effect1_innerShadow_2_524"/>
</filter>
</defs>
</svg>
