<svg width="56" height="392" viewBox="0 0 56 392" fill="none" xmlns="http://www.w3.org/2000/svg">
<g filter="url(#filter0_i_2_565)">
<rect width="56" height="392" rx="28" fill="white"/>
</g>
<rect x="0.5" y="0.5" width="55" height="391" rx="27.5" stroke="#C1CAD9"/>
<path fill-rule="evenodd" clip-rule="evenodd" d="M28 43.5833C36.6064 43.5833 43.5833 36.6064 43.5833 28C43.5833 19.3936 36.6064 12.4167 28 12.4167C19.3935 12.4167 12.4166 19.3936 12.4166 28C12.4166 36.6064 19.3935 43.5833 28 43.5833ZM34.1231 22.6521L25.1185 31.6568L21.3466 27.8583C21.1341 27.6458 20.8817 27.5396 20.5896 27.5396C20.2974 27.5396 20.045 27.6458 19.8325 27.8583C19.62 28.0708 19.5093 28.3232 19.5005 28.6154C19.4916 28.9076 19.5935 29.1599 19.806 29.3724L24.3747 33.9412C24.5872 34.1537 24.8351 34.2599 25.1185 34.2599C25.4018 34.2599 25.6497 34.1537 25.8622 33.9412L35.6106 24.1662C35.8231 23.9537 35.9294 23.7013 35.9294 23.4091C35.9294 23.1169 35.8231 22.8646 35.6106 22.6521C35.3981 22.4396 35.1502 22.3333 34.8669 22.3333C34.5836 22.3333 34.3356 22.4396 34.1231 22.6521Z" fill="#363F52"/>
<path fill-rule="evenodd" clip-rule="evenodd" d="M28 127.583C36.6064 127.583 43.5833 120.606 43.5833 112C43.5833 103.394 36.6064 96.4167 28 96.4167C19.3935 96.4167 12.4166 103.394 12.4166 112C12.4166 120.606 19.3935 127.583 28 127.583ZM34.1231 106.652L25.1185 115.657L21.3466 111.858C21.1341 111.646 20.8817 111.54 20.5896 111.54C20.2974 111.54 20.045 111.646 19.8325 111.858C19.62 112.071 19.5093 112.323 19.5005 112.615C19.4916 112.908 19.5935 113.16 19.806 113.372L24.3747 117.941C24.5872 118.154 24.8351 118.26 25.1185 118.26C25.4018 118.26 25.6497 118.154 25.8622 117.941L35.6106 108.166C35.8231 107.954 35.9294 107.701 35.9294 107.409C35.9294 107.117 35.8231 106.865 35.6106 106.652C35.3981 106.44 35.1502 106.333 34.8669 106.333C34.5836 106.333 34.3356 106.44 34.1231 106.652Z" fill="#363F52"/>
<path fill-rule="evenodd" clip-rule="evenodd" d="M28 211.583C36.6064 211.583 43.5833 204.606 43.5833 196C43.5833 187.394 36.6064 180.417 28 180.417C19.3935 180.417 12.4166 187.394 12.4166 196C12.4166 204.606 19.3935 211.583 28 211.583ZM34.1231 190.652L25.1185 199.657L21.3466 195.858C21.1341 195.646 20.8817 195.54 20.5896 195.54C20.2974 195.54 20.045 195.646 19.8325 195.858C19.62 196.071 19.5093 196.323 19.5005 196.615C19.4916 196.908 19.5935 197.16 19.806 197.372L24.3747 201.941C24.5872 202.154 24.8351 202.26 25.1185 202.26C25.4018 202.26 25.6497 202.154 25.8622 201.941L35.6106 192.166C35.8231 191.954 35.9294 191.701 35.9294 191.409C35.9294 191.117 35.8231 190.865 35.6106 190.652C35.3981 190.44 35.1502 190.333 34.8669 190.333C34.5836 190.333 34.3356 190.44 34.1231 190.652Z" fill="#363F52"/>
<path d="M27.9859 297C37.367 297 44.972 289.389 44.972 280C44.972 270.611 37.367 263 27.9859 263C18.6048 263 11 270.611 11 280C11 289.389 18.6048 297 27.9859 297Z" fill="#FFC936"/>
<path d="M27.9785 284.899C30.6815 284.899 32.8728 282.706 32.8728 280C32.8728 277.295 30.6815 275.102 27.9785 275.102C25.2755 275.102 23.0842 277.295 23.0842 280C23.0842 282.706 25.2755 284.899 27.9785 284.899Z" fill="white"/>
<circle cx="28" cy="364" r="16.5" stroke="#C1CAD9"/>
<path d="M27.7965 369.168C27.0872 369.168 26.4992 369.042 26.0325 368.79C25.5658 368.538 25.1785 368.258 24.8705 367.95L25.4305 367.194C25.7012 367.455 26.0138 367.693 26.3685 367.908C26.7232 368.113 27.1618 368.216 27.6845 368.216C28.2352 368.216 28.6972 368.034 29.0705 367.67C29.4532 367.297 29.6445 366.797 29.6445 366.172C29.6445 365.556 29.4718 365.075 29.1265 364.73C28.7812 364.385 28.3192 364.212 27.7405 364.212C27.4325 364.212 27.1665 364.259 26.9425 364.352C26.7278 364.445 26.4852 364.581 26.2145 364.758L25.5985 364.366L25.8925 360.068H30.3585V361.062H26.9005L26.6625 363.708C26.8772 363.596 27.0918 363.507 27.3065 363.442C27.5212 363.377 27.7638 363.344 28.0345 363.344C28.5478 363.344 29.0098 363.447 29.4205 363.652C29.8405 363.848 30.1765 364.151 30.4285 364.562C30.6805 364.973 30.8065 365.5 30.8065 366.144C30.8065 366.788 30.6618 367.339 30.3725 367.796C30.0925 368.244 29.7238 368.585 29.2665 368.818C28.8092 369.051 28.3192 369.168 27.7965 369.168Z" fill="#C1CAD9"/>
<defs>
<filter id="filter0_i_2_565" x="0" y="-4" width="56" height="396" filterUnits="userSpaceOnUse" color-interpolation-filters="sRGB">
<feFlood flood-opacity="0" result="BackgroundImageFix"/>
<feBlend mode="normal" in="SourceGraphic" in2="BackgroundImageFix" result="shape"/>
<feColorMatrix in="SourceAlpha" type="matrix" values="0 0 0 0 0 0 0 0 0 0 0 0 0 0 0 0 0 0 127 0" result="hardAlpha"/>
<feOffset dy="-4"/>
<feGaussianBlur stdDeviation="2"/>
<feComposite in2="hardAlpha" operator="arithmetic" k2="-1" k3="1"/>
<feColorMatrix type="matrix" values="0 0 0 0 0 0 0 0 0 0 0 0 0 0 0 0 0 0 0.25 0"/>
<feBlend mode="normal" in2="shape" result="effect1_innerShadow_2_565"/>
</filter>
</defs>
</svg>
