<svg width="56" height="392" viewBox="0 0 56 392" fill="none" xmlns="http://www.w3.org/2000/svg">
<g filter="url(#filter0_i_2_551)">
<rect width="56" height="392" rx="28" fill="white"/>
</g>
<rect x="0.5" y="0.5" width="55" height="391" rx="27.5" stroke="#C1CAD9"/>
<path fill-rule="evenodd" clip-rule="evenodd" d="M28.0001 43.5833C36.6065 43.5833 43.5834 36.6064 43.5834 28C43.5834 19.3936 36.6065 12.4167 28.0001 12.4167C19.3936 12.4167 12.4167 19.3936 12.4167 28C12.4167 36.6064 19.3936 43.5833 28.0001 43.5833ZM34.1233 22.6521L25.1186 31.6568L21.3467 27.8583C21.1342 27.6458 20.8819 27.5396 20.5897 27.5396C20.2975 27.5396 20.0451 27.6458 19.8326 27.8583C19.6201 28.0708 19.5095 28.3232 19.5006 28.6154C19.4918 28.9076 19.5936 29.1599 19.8061 29.3724L24.3748 33.9412C24.5873 34.1537 24.8352 34.2599 25.1186 34.2599C25.4019 34.2599 25.6498 34.1537 25.8623 33.9412L35.6108 24.1662C35.8233 23.9537 35.9295 23.7013 35.9295 23.4091C35.9295 23.1169 35.8233 22.8646 35.6108 22.6521C35.3983 22.4396 35.1503 22.3333 34.867 22.3333C34.5837 22.3333 34.3358 22.4396 34.1233 22.6521Z" fill="#363F52"/>
<path fill-rule="evenodd" clip-rule="evenodd" d="M28.0001 127.583C36.6065 127.583 43.5834 120.606 43.5834 112C43.5834 103.394 36.6065 96.4167 28.0001 96.4167C19.3936 96.4167 12.4167 103.394 12.4167 112C12.4167 120.606 19.3936 127.583 28.0001 127.583ZM34.1233 106.652L25.1186 115.657L21.3467 111.858C21.1342 111.646 20.8819 111.54 20.5897 111.54C20.2975 111.54 20.0451 111.646 19.8326 111.858C19.6201 112.071 19.5095 112.323 19.5006 112.615C19.4918 112.908 19.5936 113.16 19.8061 113.372L24.3748 117.941C24.5873 118.154 24.8352 118.26 25.1186 118.26C25.4019 118.26 25.6498 118.154 25.8623 117.941L35.6108 108.166C35.8233 107.954 35.9295 107.701 35.9295 107.409C35.9295 107.117 35.8233 106.865 35.6108 106.652C35.3983 106.44 35.1503 106.333 34.867 106.333C34.5837 106.333 34.3358 106.44 34.1233 106.652Z" fill="#363F52"/>
<path d="M27.9859 213C37.367 213 44.972 205.389 44.972 196C44.972 186.611 37.367 179 27.9859 179C18.6048 179 11 186.611 11 196C11 205.389 18.6048 213 27.9859 213Z" fill="#FFC936"/>
<path d="M27.9785 200.899C30.6815 200.899 32.8728 198.706 32.8728 196C32.8728 193.295 30.6815 191.102 27.9785 191.102C25.2755 191.102 23.0842 193.295 23.0842 196C23.0842 198.706 25.2755 200.899 27.9785 200.899Z" fill="white"/>
<circle cx="28" cy="280" r="16.5" stroke="#C1CAD9"/>
<path d="M25.9765 281.612H28.7765V279.022C28.7765 278.779 28.7858 278.49 28.8045 278.154C28.8232 277.818 28.8372 277.533 28.8465 277.3H28.7905C28.6785 277.515 28.5618 277.725 28.4405 277.93C28.3192 278.135 28.1932 278.345 28.0625 278.56L25.9765 281.612ZM28.7765 285V282.536H24.7585V281.78L28.5805 276.068H29.8685V281.612H31.0865V282.536H29.8685V285H28.7765Z" fill="#C1CAD9"/>
<circle cx="28" cy="364" r="16.5" stroke="#C1CAD9"/>
<path d="M27.7965 369.168C27.0872 369.168 26.4992 369.042 26.0325 368.79C25.5658 368.538 25.1785 368.258 24.8705 367.95L25.4305 367.194C25.7012 367.455 26.0138 367.693 26.3685 367.908C26.7232 368.113 27.1618 368.216 27.6845 368.216C28.2352 368.216 28.6972 368.034 29.0705 367.67C29.4532 367.297 29.6445 366.797 29.6445 366.172C29.6445 365.556 29.4718 365.075 29.1265 364.73C28.7812 364.385 28.3192 364.212 27.7405 364.212C27.4325 364.212 27.1665 364.259 26.9425 364.352C26.7278 364.445 26.4852 364.581 26.2145 364.758L25.5985 364.366L25.8925 360.068H30.3585V361.062H26.9005L26.6625 363.708C26.8772 363.596 27.0918 363.507 27.3065 363.442C27.5212 363.377 27.7638 363.344 28.0345 363.344C28.5478 363.344 29.0098 363.447 29.4205 363.652C29.8405 363.848 30.1765 364.151 30.4285 364.562C30.6805 364.973 30.8065 365.5 30.8065 366.144C30.8065 366.788 30.6618 367.339 30.3725 367.796C30.0925 368.244 29.7238 368.585 29.2665 368.818C28.8092 369.051 28.3192 369.168 27.7965 369.168Z" fill="#C1CAD9"/>
<defs>
<filter id="filter0_i_2_551" x="0" y="-4" width="56" height="396" filterUnits="userSpaceOnUse" color-interpolation-filters="sRGB">
<feFlood flood-opacity="0" result="BackgroundImageFix"/>
<feBlend mode="normal" in="SourceGraphic" in2="BackgroundImageFix" result="shape"/>
<feColorMatrix in="SourceAlpha" type="matrix" values="0 0 0 0 0 0 0 0 0 0 0 0 0 0 0 0 0 0 127 0" result="hardAlpha"/>
<feOffset dy="-4"/>
<feGaussianBlur stdDeviation="2"/>
<feComposite in2="hardAlpha" operator="arithmetic" k2="-1" k3="1"/>
<feColorMatrix type="matrix" values="0 0 0 0 0 0 0 0 0 0 0 0 0 0 0 0 0 0 0.25 0"/>
<feBlend mode="normal" in2="shape" result="effect1_innerShadow_2_551"/>
</filter>
</defs>
</svg>
