<svg width="56" height="549" viewBox="0 0 56 549" fill="none" xmlns="http://www.w3.org/2000/svg">
<g filter="url(#filter0_i_2_613)">
<rect width="56" height="476" rx="28" fill="white"/>
</g>
<rect x="0.5" y="0.5" width="55" height="475" rx="27.5" stroke="#C1CAD9"/>
<path fill-rule="evenodd" clip-rule="evenodd" d="M28 43.5833C36.6064 43.5833 43.5833 36.6064 43.5833 28C43.5833 19.3936 36.6064 12.4167 28 12.4167C19.3935 12.4167 12.4166 19.3936 12.4166 28C12.4166 36.6064 19.3935 43.5833 28 43.5833ZM34.1231 22.6521L25.1185 31.6568L21.3466 27.8583C21.1341 27.6458 20.8817 27.5396 20.5896 27.5396C20.2974 27.5396 20.045 27.6458 19.8325 27.8583C19.62 28.0708 19.5093 28.3232 19.5005 28.6154C19.4916 28.9076 19.5935 29.1599 19.806 29.3724L24.3747 33.9412C24.5872 34.1537 24.8351 34.2599 25.1185 34.2599C25.4018 34.2599 25.6497 34.1537 25.8622 33.9412L35.6106 24.1662C35.8231 23.9537 35.9294 23.7013 35.9294 23.4091C35.9294 23.1169 35.8231 22.8646 35.6106 22.6521C35.3981 22.4396 35.1502 22.3333 34.8669 22.3333C34.5836 22.3333 34.3356 22.4396 34.1231 22.6521Z" fill="#FFC936"/>
<path fill-rule="evenodd" clip-rule="evenodd" d="M28 127.583C36.6064 127.583 43.5833 120.606 43.5833 112C43.5833 103.394 36.6064 96.4167 28 96.4167C19.3935 96.4167 12.4166 103.394 12.4166 112C12.4166 120.606 19.3935 127.583 28 127.583ZM34.1231 106.652L25.1185 115.657L21.3466 111.858C21.1341 111.646 20.8817 111.54 20.5896 111.54C20.2974 111.54 20.045 111.646 19.8325 111.858C19.62 112.071 19.5093 112.323 19.5005 112.615C19.4916 112.908 19.5935 113.16 19.806 113.372L24.3747 117.941C24.5872 118.154 24.8351 118.26 25.1185 118.26C25.4018 118.26 25.6497 118.154 25.8622 117.941L35.6106 108.166C35.8231 107.954 35.9294 107.701 35.9294 107.409C35.9294 107.117 35.8231 106.865 35.6106 106.652C35.3981 106.44 35.1502 106.333 34.8669 106.333C34.5836 106.333 34.3356 106.44 34.1231 106.652Z" fill="#FFC936"/>
<path fill-rule="evenodd" clip-rule="evenodd" d="M28 211.583C36.6064 211.583 43.5833 204.606 43.5833 196C43.5833 187.394 36.6064 180.417 28 180.417C19.3935 180.417 12.4166 187.394 12.4166 196C12.4166 204.606 19.3935 211.583 28 211.583ZM34.1231 190.652L25.1185 199.657L21.3466 195.858C21.1341 195.646 20.8817 195.54 20.5896 195.54C20.2974 195.54 20.045 195.646 19.8325 195.858C19.62 196.071 19.5093 196.323 19.5005 196.615C19.4916 196.908 19.5935 197.16 19.806 197.372L24.3747 201.941C24.5872 202.154 24.8351 202.26 25.1185 202.26C25.4018 202.26 25.6497 202.154 25.8622 201.941L35.6106 192.166C35.8231 191.954 35.9294 191.701 35.9294 191.409C35.9294 191.117 35.8231 190.865 35.6106 190.652C35.3981 190.44 35.1502 190.333 34.8669 190.333C34.5836 190.333 34.3356 190.44 34.1231 190.652Z" fill="#FFC936"/>
<path fill-rule="evenodd" clip-rule="evenodd" d="M28 295.583C36.6064 295.583 43.5833 288.606 43.5833 280C43.5833 271.394 36.6064 264.417 28 264.417C19.3935 264.417 12.4166 271.394 12.4166 280C12.4166 288.606 19.3935 295.583 28 295.583ZM34.1231 274.652L25.1185 283.657L21.3466 279.858C21.1341 279.646 20.8817 279.54 20.5896 279.54C20.2974 279.54 20.045 279.646 19.8325 279.858C19.62 280.071 19.5093 280.323 19.5005 280.615C19.4916 280.908 19.5935 281.16 19.806 281.372L24.3747 285.941C24.5872 286.154 24.8351 286.26 25.1185 286.26C25.4018 286.26 25.6497 286.154 25.8622 285.941L35.6106 276.166C35.8231 275.954 35.9294 275.701 35.9294 275.409C35.9294 275.117 35.8231 274.865 35.6106 274.652C35.3981 274.44 35.1502 274.333 34.8669 274.333C34.5836 274.333 34.3356 274.44 34.1231 274.652Z" fill="#FFC936"/>
<path fill-rule="evenodd" clip-rule="evenodd" d="M28 379.583C36.6064 379.583 43.5833 372.606 43.5833 364C43.5833 355.394 36.6064 348.417 28 348.417C19.3935 348.417 12.4166 355.394 12.4166 364C12.4166 372.606 19.3935 379.583 28 379.583ZM34.1231 358.652L25.1185 367.657L21.3466 363.858C21.1341 363.646 20.8817 363.54 20.5896 363.54C20.2974 363.54 20.045 363.646 19.8325 363.858C19.62 364.071 19.5093 364.323 19.5005 364.615C19.4916 364.908 19.5935 365.16 19.806 365.372L24.3747 369.941C24.5872 370.154 24.8351 370.26 25.1185 370.26C25.4018 370.26 25.6497 370.154 25.8622 369.941L35.6106 360.166C35.8231 359.954 35.9294 359.701 35.9294 359.409C35.9294 359.117 35.8231 358.865 35.6106 358.652C35.3981 358.44 35.1502 358.333 34.8669 358.333C34.5836 358.333 34.3356 358.44 34.1231 358.652Z" fill="#FFC936"/>
<path fill-rule="evenodd" clip-rule="evenodd" d="M28 463.583C36.6064 463.583 43.5833 456.606 43.5833 448C43.5833 439.394 36.6064 432.417 28 432.417C19.3935 432.417 12.4166 439.394 12.4166 448C12.4166 456.606 19.3935 463.583 28 463.583ZM34.1231 442.652L25.1185 451.657L21.3466 447.858C21.1341 447.646 20.8817 447.54 20.5896 447.54C20.2974 447.54 20.045 447.646 19.8325 447.858C19.62 448.071 19.5093 448.323 19.5005 448.615C19.4916 448.908 19.5935 449.16 19.806 449.372L24.3747 453.941C24.5872 454.154 24.8351 454.26 25.1185 454.26C25.4018 454.26 25.6497 454.154 25.8622 453.941L35.6106 444.166C35.8231 443.954 35.9294 443.701 35.9294 443.409C35.9294 443.117 35.8231 442.865 35.6106 442.652C35.3981 442.44 35.1502 442.333 34.8669 442.333C34.5836 442.333 34.3356 442.44 34.1231 442.652Z" fill="#FFC936"/>
<path d="M27.9859 549C37.367 549 44.972 541.389 44.972 532C44.972 522.611 37.367 515 27.9859 515C18.6048 515 11 522.611 11 532C11 541.389 18.6048 549 27.9859 549Z" fill="#FFC936"/>
<path d="M27.9785 536.899C30.6815 536.899 32.8728 534.706 32.8728 532C32.8728 529.295 30.6815 527.102 27.9785 527.102C25.2755 527.102 23.0842 529.295 23.0842 532C23.0842 534.706 25.2755 536.899 27.9785 536.899Z" fill="white"/>
<defs>
<filter id="filter0_i_2_613" x="0" y="-4" width="56" height="480" filterUnits="userSpaceOnUse" color-interpolation-filters="sRGB">
<feFlood flood-opacity="0" result="BackgroundImageFix"/>
<feBlend mode="normal" in="SourceGraphic" in2="BackgroundImageFix" result="shape"/>
<feColorMatrix in="SourceAlpha" type="matrix" values="0 0 0 0 0 0 0 0 0 0 0 0 0 0 0 0 0 0 127 0" result="hardAlpha"/>
<feOffset dy="-4"/>
<feGaussianBlur stdDeviation="2"/>
<feComposite in2="hardAlpha" operator="arithmetic" k2="-1" k3="1"/>
<feColorMatrix type="matrix" values="0 0 0 0 0 0 0 0 0 0 0 0 0 0 0 0 0 0 0.25 0"/>
<feBlend mode="normal" in2="shape" result="effect1_innerShadow_2_613"/>
</filter>
</defs>
</svg>
