<svg width="44" height="86" viewBox="0 0 44 86" fill="none" xmlns="http://www.w3.org/2000/svg">
<path d="M36.0276 64.661C27.7378 59.87 14.3733 59.87 6.14653 64.661C-2.08024 69.4521 -2.04872 77.206 6.24108 81.9656C14.5309 86.7567 27.8954 86.7567 36.1221 81.9656C44.3489 77.1745 44.3174 69.4206 36.0276 64.661Z" fill="#0F1114"/>
<path d="M21.7817 42.5522C33.5388 42.5522 43.0578 33.0331 43.0578 21.2761C43.0578 9.51909 33.5388 0 21.7817 0C10.0247 0 0.505615 9.51909 0.505615 21.2761C0.505615 33.0331 10.0247 42.5522 21.7817 42.5522Z" fill="#FFC936"/>
<path d="M21.78 27.391C25.1526 27.391 27.9264 24.6487 27.9264 21.2446C27.9264 17.8404 25.1841 15.0981 21.78 15.0981C18.3758 15.0981 15.665 17.8404 15.665 21.2446C15.665 24.6487 18.4073 27.391 21.78 27.391Z" fill="#FFEF9F"/>
</svg>
