<svg width="43" height="52" viewBox="0 0 43 52" fill="none" xmlns="http://www.w3.org/2000/svg">
<path d="M36.2512 30.1424C27.9614 25.3514 14.5969 25.3514 6.37016 30.1424C-1.85661 34.9335 -1.82509 42.6874 6.46472 47.447C14.7545 52.238 28.1191 52.238 36.3459 47.447C44.5726 42.6559 44.541 34.902 36.2512 30.1424Z" fill="#0F1114"/>
<path d="M21.2761 38.7068C33.0331 38.7068 42.5522 33.0331 42.5522 21.2761C42.5522 9.51909 33.0331 0 21.2761 0C9.51909 0 0 9.51909 0 21.2761C0 33.0331 9.51909 38.7068 21.2761 38.7068Z" fill="#FFC936"/>
<path d="M21.2748 33.3799C24.6475 33.3799 27.3898 30.6376 27.3898 27.2334C27.3898 23.8292 24.6475 21.087 21.2748 21.087C17.9022 21.087 15.1599 23.8292 15.1599 27.2334C15.1599 30.6376 17.9022 33.3799 21.2748 33.3799Z" fill="#FFEF9F"/>
</svg>
