<svg width="123" height="111" viewBox="0 0 123 111" fill="none" xmlns="http://www.w3.org/2000/svg">
<path d="M81.0039 85.9366L40.5149 109.478C44.4898 107.167 48.095 101.066 50.0979 90.004L90.5869 66.4624C88.6148 77.4937 84.9789 83.6256 81.0039 85.9366Z" fill="#C74504"/>
<path d="M2.37109 28.8698L42.8601 5.32843C45.3869 3.84938 49.9472 4.5581 56.2948 8.22491C60.732 10.7824 66.0628 14.819 72.1947 20.5503L31.7057 44.0917C25.5738 38.3296 20.2429 34.3238 15.8058 31.7663C9.45817 28.0995 4.89781 27.4216 2.37109 28.8698Z" fill="#DE6000"/>
<path d="M119.921 81.6843L79.4321 105.226C85.9029 101.467 79.2781 83.6255 56.1987 65.2915L96.6876 41.7499C119.767 60.0839 126.392 77.9251 119.921 81.6843Z" fill="#DE6000"/>
<path d="M41.2612 24.6175L81.7503 1.07613C84.3694 -0.433738 87.1427 -0.310581 89.7002 1.16847L49.2112 24.7101C46.6537 23.231 43.8804 23.1077 41.2612 24.6175Z" fill="#C74504"/>
<path d="M49.2059 24.7101C56.8477 29.1164 62.5174 45.54 56.1698 65.2915C88.2776 90.8051 88.5241 115.364 65.9685 102.329C61.5314 99.7719 56.2007 95.7354 50.0688 90.004C46.7718 108.338 38.9759 113.083 32.5359 109.386C24.8941 104.979 19.2244 88.5558 25.572 68.8043C-6.53572 43.2907 -6.7822 18.7322 15.7733 31.7663C20.2105 34.3239 25.5411 38.3604 31.673 44.0918C34.9701 25.7577 42.7659 21.0125 49.2059 24.7101Z" fill="#FAAF00"/>
<path d="M49.2061 24.7101L89.6951 1.16849C97.3369 5.57483 103.007 21.9984 96.659 41.7499L56.1699 65.2915C62.4867 45.54 56.817 29.1164 49.2061 24.7101Z" fill="#FFEAC9"/>
</svg>
