<svg width="187" height="187" viewBox="0 0 187 187" fill="none" xmlns="http://www.w3.org/2000/svg">
  <path d="M93.5001 92.9156L80.4491 102.85C79.7998 103.369 79.118 103.369 78.4037 102.85C77.6895 102.331 77.4623 101.681 77.722 100.902L82.7866 84.7344L69.3459 74.2156C68.6966 73.6962 68.5018 73.0469 68.7616 72.2677C69.0213 71.4885 69.6057 71.099 70.5147 71.099H86.6824L91.747 55.126C92.0067 54.3469 92.5911 53.9573 93.5001 53.9573C94.4091 53.9573 94.9935 54.3469 95.2532 55.126L100.318 71.099H116.486C117.395 71.099 117.979 71.4885 118.239 72.2677C118.498 73.0469 118.304 73.6962 117.654 74.2156L104.214 84.7344L109.278 100.902C109.538 101.681 109.311 102.331 108.596 102.85C107.882 103.369 107.2 103.369 106.551 102.85L93.5001 92.9156ZM93.5001 168.3L59.8011 175.702C57.5935 176.222 55.6131 175.767 53.86 174.339C52.1069 172.91 51.2303 171.092 51.2303 168.884V123.108C45.6463 118.303 41.1661 111.875 37.7897 103.824C34.4133 95.7726 32.7251 87.6562 32.7251 79.475C32.7251 62.593 38.6338 48.2434 50.4511 36.426C62.2685 24.6087 76.6182 18.7 93.5001 18.7C110.382 18.7 124.732 24.6087 136.549 36.426C148.366 48.2434 154.275 62.593 154.275 79.475C154.275 87.7861 152.717 95.9349 149.6 103.921C146.483 111.908 141.808 118.368 135.575 123.303V168.884C135.575 171.092 134.699 172.91 132.945 174.339C131.192 175.767 129.212 176.222 127.004 175.702L93.5001 168.3ZM93.5001 126.225C106.486 126.225 117.524 121.68 126.615 112.59C135.705 103.499 140.25 92.4611 140.25 79.475C140.25 66.4889 135.705 55.4507 126.615 46.3604C117.524 37.2701 106.486 32.725 93.5001 32.725C80.514 32.725 69.4758 37.2701 60.3855 46.3604C51.2952 55.4507 46.7501 66.4889 46.7501 79.475C46.7501 92.4611 51.2952 103.499 60.3855 112.59C69.4758 121.68 80.514 126.225 93.5001 126.225ZM65.2553 160.119L93.5001 153.885L121.55 160.119V133.237C117.265 135.575 112.752 137.328 108.012 138.497C103.272 139.666 98.4348 140.25 93.5001 140.25C88.5654 140.25 83.6956 139.698 78.8907 138.594C74.0859 137.49 69.5407 135.705 65.2553 133.237V160.119Z" fill="#5b6780"/>
</svg>
